<?xml version="1.0" encoding="utf-8"?>
<!-- Generator: Adobe Illustrator 24.3.0, SVG Export Plug-In . SVG Version: 6.00 Build 0)  -->
<svg version="1.1" id="Layer_1" xmlns="http://www.w3.org/2000/svg" xmlns:xlink="http://www.w3.org/1999/xlink" x="0px" y="0px"
	 viewBox="0 0 177.07 162.06" style="enable-background:new 0 0 177.07 162.06;" xml:space="preserve">
<style type="text/css">
	.st0{fill:none;stroke:#F7BF25;stroke-width:0.5;stroke-miterlimit:10;}
	.st1{fill:#F7F7F7;}
	.st2{fill:#008000;}
	.st3{fill:#2F0C3A;}
	.st4{font-family:'HelveticaNeue';}
	.st5{font-size:4.5512px;}
	.st6{font-size:3.7927px;}
	.st7{fill:#A0A0A0;}
	.st8{font-family:'HelveticaNeueLT-75Bd';}
	.st9{fill:#FFFFFF;}
	.st10{font-size:6.0683px;}
	.st11{fill:none;stroke:#D8D8D8;stroke-width:0.5;stroke-miterlimit:10;}
</style>
<g>
	<path class="st0" d="M171.35,161.81H5.72c-3.02,0-5.47-2.45-5.47-5.47V5.72c0-3.02,2.45-5.47,5.47-5.47h165.63
		c3.02,0,5.47,2.45,5.47,5.47v150.61C176.82,159.36,174.37,161.81,171.35,161.81z"/>
	<rect x="15.99" y="70.08" class="st1" width="145.26" height="7.6"/>
	<path class="st2" d="M27.05,42.8h-9.81c-0.69,0-1.26-0.56-1.26-1.26v-6.23c0-0.69,0.56-1.26,1.26-1.26h9.81
		c0.69,0,1.26,0.56,1.26,1.26v6.23C28.31,42.24,27.75,42.8,27.05,42.8z"/>
	<g>
		<g>
			<g>
				<path class="st3" d="M19.84,82.79c0-0.61,0.45-0.98,0.95-0.98c0.54,0,0.85,0.35,0.85,0.88c0,0.07-0.01,0.14-0.01,0.19h-1.58
					v-0.25h1.39l-0.08,0.09c0-0.44-0.22-0.66-0.56-0.66c-0.35,0-0.65,0.26-0.65,0.73c0,0.48,0.31,0.73,0.73,0.73
					c0.22,0,0.4-0.07,0.57-0.18l0.12,0.21c-0.18,0.12-0.42,0.22-0.72,0.22C20.28,83.77,19.84,83.41,19.84,82.79z"/>
				<path class="st3" d="M22.12,81.86h0.26l0.03,0.32h0.01c0.2-0.2,0.41-0.36,0.7-0.36c0.44,0,0.65,0.26,0.65,0.75v1.16h-0.32v-1.12
					c0-0.35-0.12-0.52-0.43-0.52c-0.22,0-0.37,0.11-0.59,0.33v1.3h-0.32V81.86z"/>
				<path class="st3" d="M24.74,83v-0.88h-0.53v-0.24l0.54-0.02l0.04-0.6h0.27v0.6h0.92v0.26h-0.92V83c0,0.33,0.11,0.51,0.47,0.51
					c0.17,0,0.31-0.04,0.45-0.08l0.07,0.23c-0.17,0.06-0.35,0.11-0.58,0.11C24.92,83.77,24.74,83.46,24.74,83z"/>
				<path class="st3" d="M27.35,82.11h-0.87v-0.26h1.18v1.87h-0.32V82.11z M27.22,81.22c0-0.15,0.11-0.25,0.25-0.25
					c0.15,0,0.25,0.1,0.25,0.25c0,0.15-0.11,0.25-0.25,0.25C27.33,81.46,27.22,81.37,27.22,81.22z"/>
				<path class="st3" d="M29.12,83v-0.88h-0.53v-0.24l0.54-0.02l0.04-0.6h0.27v0.6h0.92v0.26h-0.92V83c0,0.33,0.11,0.51,0.47,0.51
					c0.17,0,0.31-0.04,0.45-0.08l0.07,0.23c-0.17,0.06-0.35,0.11-0.58,0.11C29.3,83.77,29.12,83.46,29.12,83z"/>
				<path class="st3" d="M30.77,84.49l0.07-0.25c0.05,0.01,0.11,0.03,0.17,0.03c0.26,0,0.42-0.17,0.51-0.4l0.05-0.14l-0.87-1.87
					h0.32l0.45,1.03c0.07,0.17,0.15,0.36,0.23,0.54h0.01c0.07-0.18,0.14-0.37,0.2-0.54l0.4-1.03h0.31l-0.83,2.02
					c-0.14,0.37-0.37,0.65-0.79,0.65C30.93,84.53,30.84,84.51,30.77,84.49z"/>
				<path class="st3" d="M32.93,83.99h1.85v0.27h-1.85V83.99z"/>
				<path class="st3" d="M36.1,82.11h-0.87v-0.26h1.18v1.87H36.1V82.11z M35.98,81.22c0-0.15,0.11-0.25,0.25-0.25
					c0.15,0,0.25,0.1,0.25,0.25c0,0.15-0.11,0.25-0.25,0.25C36.08,81.46,35.98,81.37,35.98,81.22z"/>
				<path class="st3" d="M37.31,82.79c0-0.61,0.4-0.98,0.85-0.98c0.22,0,0.4,0.09,0.56,0.24h0.01l-0.01-0.34v-0.72h0.32v2.74h-0.26
					l-0.03-0.25h-0.01c-0.15,0.16-0.38,0.29-0.61,0.29C37.63,83.77,37.31,83.42,37.31,82.79z M38.71,83.23v-0.93
					c-0.17-0.16-0.33-0.21-0.49-0.21c-0.32,0-0.58,0.28-0.58,0.71c0,0.45,0.21,0.71,0.55,0.71C38.37,83.5,38.55,83.41,38.71,83.23z"
					/>
			</g>
		</g>
	</g>
	<g>
		<g>
			<g>
				<path class="st3" d="M19.8,90.82h0.25l0.03,0.25h0.01c0.1-0.17,0.21-0.29,0.43-0.29c0.18,0,0.3,0.11,0.35,0.32
					c0.11-0.2,0.22-0.32,0.44-0.32c0.26,0,0.42,0.2,0.42,0.58v1.34H21.4v-1.32c0-0.21-0.06-0.33-0.2-0.33c-0.13,0-0.2,0.1-0.3,0.29
					v1.35h-0.29v-1.32c0-0.21-0.05-0.33-0.19-0.33c-0.13,0-0.21,0.1-0.31,0.29v1.35H19.8V90.82z"/>
				<path class="st3" d="M21.99,91.76c0-0.63,0.43-0.98,0.92-0.98s0.92,0.36,0.92,0.98c0,0.62-0.43,0.98-0.92,0.98
					S21.99,92.38,21.99,91.76z M23.51,91.76c0-0.43-0.24-0.72-0.6-0.72s-0.6,0.29-0.6,0.72c0,0.43,0.24,0.71,0.6,0.71
					S23.51,92.19,23.51,91.76z"/>
				<path class="st3" d="M24.18,91.76c0-0.61,0.4-0.98,0.85-0.98c0.22,0,0.4,0.09,0.56,0.24h0.01l-0.02-0.34v-0.72h0.32v2.74h-0.26
					l-0.03-0.25H25.6c-0.15,0.16-0.38,0.29-0.61,0.29C24.5,92.74,24.18,92.38,24.18,91.76z M25.58,92.19v-0.93
					c-0.17-0.16-0.33-0.21-0.49-0.21c-0.32,0-0.58,0.28-0.58,0.71c0,0.45,0.21,0.71,0.55,0.71C25.24,92.47,25.42,92.37,25.58,92.19z
					"/>
				<path class="st3" d="M26.4,91.75c0-0.61,0.45-0.98,0.95-0.98c0.54,0,0.85,0.35,0.85,0.88c0,0.07-0.01,0.14-0.01,0.19h-1.58V91.6
					H28l-0.08,0.09c0-0.44-0.22-0.66-0.56-0.66c-0.35,0-0.65,0.26-0.65,0.73c0,0.48,0.31,0.73,0.73,0.73c0.22,0,0.4-0.07,0.57-0.18
					l0.12,0.21c-0.18,0.12-0.42,0.22-0.72,0.22C26.85,92.74,26.4,92.37,26.4,91.75z"/>
				<path class="st3" d="M29.27,92.06v-1.85h-0.66v-0.26h0.98v2.13c0,0.27,0.15,0.38,0.37,0.38c0.11,0,0.22-0.03,0.35-0.08
					l0.08,0.24c-0.17,0.07-0.3,0.11-0.5,0.11C29.49,92.74,29.27,92.51,29.27,92.06z"/>
			</g>
		</g>
	</g>
	<g>
		<text transform="matrix(1 0 0 1 15.7814 29.0005)" class="st3 st4 st5">get the contrubutions of all features</text>
	</g>
	<g>
		<text transform="matrix(1 0 0 1 64.8947 84.1011)" class="st3 st4 st6">String</text>
	</g>
	<g>
		<text transform="matrix(1 0 0 1 84.2277 84.1011)" class="st7 st4 st6">ID of the entity to compute.</text>
	</g>
	<g>
		<text transform="matrix(1 0 0 1 84.1222 92.6899)" class="st7 st4 st6">ID of the model to compute</text>
	</g>
	<g>
		<text transform="matrix(1 0 0 1 64.8947 92.8354)" class="st3 st4 st6">String</text>
	</g>
	<g>
		<text transform="matrix(1 0 0 1 19.2199 75.4702)" class="st3 st4 st5">Field</text>
	</g>
	<g>
		<text transform="matrix(1 0 0 1 64.8742 75.4702)" class="st3 st4 st5">Type</text>
	</g>
	<g>
		<text transform="matrix(1 0 0 1 84.2277 75.4702)" class="st3 st4 st5">Description</text>
	</g>
	<g>
		<text transform="matrix(1 0 0 1 16.1164 66.6294)" class="st3 st8 st5">Parameter</text>
	</g>
	<g>
		<text transform="matrix(1 0 0 1 17.6173 40.23)" class="st9 st4 st5">GET</text>
	</g>
	<path d="M152.4,54.92H17.24c-0.69,0-1.26-0.56-1.26-1.26v-7.65c0-0.69,0.56-1.26,1.26-1.26H152.4c0.69,0,1.26,0.56,1.26,1.26v7.65
		C153.66,54.36,153.1,54.92,152.4,54.92z"/>
	<g>
		<g>
			<g>
				<path class="st9" d="M19.22,48.29h0.32v0.75l-0.02,0.44h0.01c0.19-0.21,0.41-0.37,0.7-0.37c0.44,0,0.65,0.26,0.65,0.75v1.16
					h-0.32v-1.12c0-0.35-0.12-0.52-0.43-0.52c-0.22,0-0.37,0.11-0.59,0.33v1.3h-0.32V48.29z"/>
				<path class="st9" d="M21.84,50.3v-0.88h-0.53v-0.24l0.54-0.02l0.04-0.6h0.27v0.6h0.92v0.26h-0.92v0.89
					c0,0.33,0.11,0.51,0.47,0.51c0.17,0,0.31-0.04,0.45-0.08l0.07,0.23c-0.17,0.06-0.35,0.11-0.58,0.11
					C22.02,51.07,21.84,50.76,21.84,50.3z"/>
				<path class="st9" d="M24.03,50.3v-0.88H23.5v-0.24l0.54-0.02l0.04-0.6h0.27v0.6h0.92v0.26h-0.92v0.89
					c0,0.33,0.11,0.51,0.47,0.51c0.17,0,0.31-0.04,0.45-0.08l0.07,0.23c-0.17,0.06-0.35,0.11-0.58,0.11
					C24.21,51.07,24.03,50.76,24.03,50.3z"/>
				<path class="st9" d="M25.79,49.16h0.26l0.03,0.24h0.01c0.17-0.17,0.42-0.28,0.65-0.28c0.5,0,0.77,0.37,0.77,0.95
					c0,0.63-0.4,1.01-0.85,1.01c-0.17,0-0.39-0.09-0.56-0.24h-0.01l0.02,0.35v0.63h-0.32V49.16z M27.18,50.07
					c0-0.41-0.15-0.68-0.53-0.68c-0.17,0-0.36,0.08-0.55,0.28v0.93c0.17,0.16,0.37,0.22,0.5,0.22
					C26.93,50.81,27.18,50.53,27.18,50.07z"/>
				<path class="st9" d="M28.46,49.37c0-0.19,0.14-0.33,0.31-0.33s0.31,0.13,0.31,0.33c0,0.2-0.14,0.33-0.31,0.33
					S28.46,49.57,28.46,49.37z M28.46,50.75c0-0.19,0.14-0.33,0.31-0.33s0.31,0.13,0.31,0.33c0,0.2-0.14,0.33-0.31,0.33
					S28.46,50.94,28.46,50.75z"/>
				<path class="st9" d="M31.45,48.3h0.29l-1.26,3.35h-0.28L31.45,48.3z"/>
				<path class="st9" d="M33.64,48.3h0.29l-1.26,3.35h-0.28L33.64,48.3z"/>
				<path class="st9" d="M35.13,50.4v-1.85h-0.66v-0.26h0.98v2.13c0,0.27,0.15,0.38,0.37,0.38c0.11,0,0.22-0.03,0.35-0.08l0.08,0.24
					c-0.17,0.07-0.3,0.11-0.5,0.11C35.35,51.07,35.13,50.84,35.13,50.4z"/>
				<path class="st9" d="M36.6,50.1c0-0.63,0.43-0.98,0.92-0.98s0.92,0.36,0.92,0.98c0,0.62-0.43,0.98-0.92,0.98
					S36.6,50.72,36.6,50.1z M38.12,50.1c0-0.43-0.24-0.72-0.6-0.72s-0.6,0.29-0.6,0.72c0,0.43,0.24,0.71,0.6,0.71
					S38.12,50.52,38.12,50.1z"/>
				<path class="st9" d="M38.87,50.1c0-0.63,0.48-0.98,1.04-0.98c0.3,0,0.53,0.12,0.68,0.27l-0.16,0.2
					c-0.15-0.13-0.32-0.21-0.51-0.21c-0.43,0-0.73,0.29-0.73,0.72c0,0.43,0.29,0.71,0.72,0.71c0.23,0,0.42-0.1,0.58-0.24l0.14,0.21
					c-0.21,0.18-0.46,0.29-0.74,0.29C39.3,51.07,38.87,50.72,38.87,50.1z"/>
				<path class="st9" d="M41.05,50.54c0-0.42,0.39-0.62,1.36-0.7c-0.01-0.25-0.13-0.47-0.5-0.47c-0.24,0-0.48,0.12-0.65,0.22
					l-0.13-0.21c0.19-0.12,0.51-0.27,0.83-0.27c0.51,0,0.76,0.3,0.76,0.77v1.15h-0.27l-0.03-0.25h-0.01c-0.2,0.16-0.47,0.3-0.73,0.3
					C41.34,51.07,41.05,50.88,41.05,50.54z M42.41,50.54v-0.48c-0.8,0.06-1.04,0.22-1.04,0.46c0,0.21,0.19,0.3,0.41,0.3
					C41.99,50.82,42.2,50.72,42.41,50.54z"/>
				<path class="st9" d="M43.88,50.4v-1.85h-0.66v-0.26h0.98v2.13c0,0.27,0.15,0.38,0.37,0.38c0.11,0,0.22-0.03,0.35-0.08L45,50.96
					c-0.17,0.07-0.3,0.11-0.5,0.11C44.1,51.07,43.88,50.84,43.88,50.4z"/>
				<path class="st9" d="M45.48,48.29h0.32v0.75l-0.02,0.44h0.01c0.19-0.21,0.41-0.37,0.7-0.37c0.44,0,0.65,0.26,0.65,0.75v1.16
					h-0.32v-1.12c0-0.35-0.12-0.52-0.43-0.52c-0.22,0-0.37,0.11-0.59,0.33v1.3h-0.32V48.29z"/>
				<path class="st9" d="M47.54,50.1c0-0.63,0.43-0.98,0.92-0.98s0.92,0.36,0.92,0.98c0,0.62-0.43,0.98-0.92,0.98
					S47.54,50.72,47.54,50.1z M49.06,50.1c0-0.43-0.24-0.72-0.6-0.72s-0.6,0.29-0.6,0.72c0,0.43,0.24,0.71,0.6,0.71
					S49.06,50.52,49.06,50.1z"/>
				<path class="st9" d="M49.77,50.78l0.15-0.21c0.22,0.15,0.47,0.25,0.81,0.25c0.32,0,0.47-0.13,0.47-0.29
					c0-0.14-0.07-0.24-0.58-0.35c-0.49-0.1-0.73-0.27-0.73-0.55c0-0.3,0.26-0.53,0.78-0.53c0.28,0,0.57,0.11,0.75,0.24l-0.15,0.2
					c-0.17-0.12-0.39-0.2-0.63-0.2c-0.32,0-0.43,0.13-0.43,0.27c0,0.16,0.16,0.23,0.55,0.31c0.62,0.13,0.77,0.29,0.77,0.58
					c0,0.3-0.3,0.56-0.83,0.56C50.33,51.07,50,50.94,49.77,50.78z"/>
				<path class="st9" d="M52.48,50.3v-0.88h-0.53v-0.24l0.54-0.02l0.04-0.6h0.27v0.6h0.92v0.26H52.8v0.89
					c0,0.33,0.11,0.51,0.47,0.51c0.17,0,0.31-0.04,0.45-0.08l0.07,0.23c-0.17,0.06-0.35,0.11-0.58,0.11
					C52.66,51.07,52.48,50.76,52.48,50.3z"/>
				<path class="st9" d="M54.72,49.37c0-0.19,0.14-0.33,0.31-0.33s0.31,0.13,0.31,0.33c0,0.2-0.14,0.33-0.31,0.33
					S54.72,49.57,54.72,49.37z M54.72,50.75c0-0.19,0.14-0.33,0.31-0.33s0.31,0.13,0.31,0.33c0,0.2-0.14,0.33-0.31,0.33
					S54.72,50.94,54.72,50.75z"/>
				<path class="st9" d="M56.28,50.73l0.16-0.21c0.16,0.15,0.39,0.29,0.7,0.29c0.33,0,0.58-0.17,0.58-0.45
					c0-0.29-0.25-0.49-0.89-0.49v-0.24c0.58,0,0.8-0.2,0.8-0.46c0-0.23-0.2-0.38-0.5-0.38c-0.23,0-0.44,0.1-0.6,0.25l-0.17-0.2
					c0.2-0.18,0.47-0.31,0.78-0.31c0.46,0,0.81,0.23,0.81,0.62c0,0.3-0.22,0.49-0.52,0.58v0.02c0.33,0.07,0.61,0.28,0.61,0.62
					c0,0.43-0.4,0.7-0.89,0.7C56.75,51.07,56.47,50.91,56.28,50.73z"/>
				<path class="st9" d="M58.53,49.79c0-0.82,0.33-1.26,0.88-1.26s0.88,0.44,0.88,1.26c0,0.82-0.33,1.28-0.88,1.28
					S58.53,50.61,58.53,49.79z M59.99,49.79c0-0.7-0.24-1.01-0.58-1.01c-0.34,0-0.58,0.3-0.58,1.01c0,0.7,0.24,1.02,0.58,1.02
					C59.75,50.82,59.99,50.5,59.99,49.79z M59.17,49.77c0-0.16,0.11-0.25,0.24-0.25s0.24,0.1,0.24,0.25c0,0.16-0.11,0.26-0.24,0.26
					S59.17,49.93,59.17,49.77z"/>
				<path class="st9" d="M60.72,49.79c0-0.82,0.33-1.26,0.88-1.26s0.88,0.44,0.88,1.26c0,0.82-0.33,1.28-0.88,1.28
					S60.72,50.61,60.72,49.79z M62.18,49.79c0-0.7-0.24-1.01-0.58-1.01c-0.34,0-0.58,0.3-0.58,1.01c0,0.7,0.24,1.02,0.58,1.02
					C61.94,50.82,62.18,50.5,62.18,49.79z M61.36,49.77c0-0.16,0.11-0.25,0.24-0.25s0.24,0.1,0.24,0.25c0,0.16-0.11,0.26-0.24,0.26
					S61.36,49.93,61.36,49.77z"/>
				<path class="st9" d="M62.9,49.79c0-0.82,0.33-1.26,0.88-1.26c0.55,0,0.88,0.44,0.88,1.26c0,0.82-0.33,1.28-0.88,1.28
					C63.24,51.07,62.9,50.61,62.9,49.79z M64.37,49.79c0-0.7-0.24-1.01-0.58-1.01c-0.34,0-0.58,0.3-0.58,1.01
					c0,0.7,0.24,1.02,0.58,1.02C64.13,50.82,64.37,50.5,64.37,49.79z M63.54,49.77c0-0.16,0.11-0.25,0.24-0.25s0.24,0.1,0.24,0.25
					c0,0.16-0.11,0.26-0.24,0.26S63.54,49.93,63.54,49.77z"/>
				<path class="st9" d="M66.46,48.3h0.29l-1.26,3.35H65.2L66.46,48.3z"/>
				<path class="st9" d="M67.31,50.54c0-0.42,0.39-0.62,1.36-0.7c-0.01-0.25-0.13-0.47-0.5-0.47c-0.24,0-0.48,0.12-0.65,0.22
					l-0.13-0.21c0.19-0.12,0.51-0.27,0.83-0.27c0.51,0,0.76,0.3,0.76,0.77v1.15h-0.27l-0.03-0.25h-0.01c-0.2,0.16-0.47,0.3-0.73,0.3
					C67.6,51.07,67.31,50.88,67.31,50.54z M68.67,50.54v-0.48c-0.8,0.06-1.04,0.22-1.04,0.46c0,0.21,0.19,0.3,0.41,0.3
					C68.25,50.82,68.46,50.72,68.67,50.54z"/>
				<path class="st9" d="M69.55,49.16h0.26l0.03,0.24h0.01c0.17-0.17,0.42-0.28,0.65-0.28c0.5,0,0.77,0.37,0.77,0.95
					c0,0.63-0.4,1.01-0.85,1.01c-0.17,0-0.39-0.09-0.56-0.24h-0.01l0.02,0.35v0.63h-0.32V49.16z M70.95,50.07
					c0-0.41-0.15-0.68-0.53-0.68c-0.17,0-0.36,0.08-0.55,0.28v0.93c0.17,0.16,0.37,0.22,0.5,0.22
					C70.7,50.81,70.95,50.53,70.95,50.07z"/>
				<path class="st9" d="M72.59,49.42h-0.87v-0.26h1.18v1.87h-0.32V49.42z M72.47,48.52c0-0.15,0.11-0.25,0.25-0.25
					c0.15,0,0.25,0.1,0.25,0.25c0,0.15-0.11,0.25-0.25,0.25C72.58,48.77,72.47,48.67,72.47,48.52z"/>
				<path class="st9" d="M75.21,48.3h0.29l-1.26,3.35h-0.28L75.21,48.3z"/>
				<path class="st9" d="M75.95,49.16h0.33l0.43,1.06c0.07,0.19,0.14,0.37,0.21,0.55h0.02c0.07-0.18,0.13-0.37,0.2-0.55l0.43-1.06
					h0.31l-0.78,1.87h-0.36L75.95,49.16z"/>
				<path class="st9" d="M78.32,50.76h0.71v-1.8h-0.55v-0.21c0.29-0.04,0.47-0.1,0.63-0.18h0.24v2.19h0.64v0.27h-1.67V50.76z"/>
				<path class="st9" d="M81.78,48.3h0.29l-1.26,3.35h-0.28L81.78,48.3z"/>
				<path class="st9" d="M82.63,50.1c0-0.63,0.48-0.98,1.04-0.98c0.3,0,0.53,0.12,0.68,0.27l-0.16,0.2
					c-0.15-0.13-0.32-0.21-0.51-0.21c-0.43,0-0.73,0.29-0.73,0.72c0,0.43,0.29,0.71,0.72,0.71c0.23,0,0.42-0.1,0.58-0.24l0.14,0.21
					c-0.21,0.18-0.46,0.29-0.74,0.29C83.07,51.07,82.63,50.72,82.63,50.1z"/>
				<path class="st9" d="M84.74,50.1c0-0.63,0.43-0.98,0.92-0.98s0.92,0.36,0.92,0.98c0,0.62-0.43,0.98-0.92,0.98
					S84.74,50.72,84.74,50.1z M86.26,50.1c0-0.43-0.24-0.72-0.6-0.72s-0.6,0.29-0.6,0.72c0,0.43,0.24,0.71,0.6,0.71
					S86.26,50.52,86.26,50.1z"/>
				<path class="st9" d="M86.92,49.16h0.25l0.03,0.25h0.01c0.1-0.17,0.21-0.29,0.43-0.29c0.18,0,0.3,0.11,0.35,0.32
					c0.11-0.2,0.22-0.32,0.44-0.32c0.26,0,0.42,0.2,0.42,0.58v1.34h-0.32v-1.32c0-0.21-0.06-0.33-0.2-0.33c-0.13,0-0.2,0.1-0.3,0.29
					v1.35h-0.29v-1.32c0-0.21-0.05-0.33-0.19-0.33c-0.13,0-0.21,0.1-0.31,0.29v1.35h-0.32V49.16z"/>
				<path class="st9" d="M89.25,49.16h0.26l0.03,0.24h0.01c0.17-0.17,0.42-0.28,0.65-0.28c0.5,0,0.77,0.37,0.77,0.95
					c0,0.63-0.4,1.01-0.85,1.01c-0.17,0-0.39-0.09-0.56-0.24h-0.01l0.02,0.35v0.63h-0.32V49.16z M90.64,50.07
					c0-0.41-0.15-0.68-0.53-0.68c-0.17,0-0.36,0.08-0.55,0.28v0.93c0.17,0.16,0.37,0.22,0.5,0.22
					C90.39,50.81,90.64,50.53,90.64,50.07z"/>
				<path class="st9" d="M91.37,50.32v-1.16h0.32v1.12c0,0.35,0.12,0.52,0.43,0.52c0.21,0,0.37-0.1,0.58-0.34v-1.3h0.32v1.87h-0.26
					l-0.03-0.33h-0.02c-0.19,0.22-0.41,0.37-0.7,0.37C91.58,51.07,91.37,50.81,91.37,50.32z"/>
				<path class="st9" d="M94.06,50.3v-0.88h-0.53v-0.24l0.54-0.02l0.04-0.6h0.27v0.6h0.92v0.26h-0.92v0.89
					c0,0.33,0.11,0.51,0.47,0.51c0.17,0,0.31-0.04,0.45-0.08l0.07,0.23c-0.17,0.06-0.35,0.11-0.58,0.11
					C94.24,51.07,94.06,50.76,94.06,50.3z"/>
				<path class="st9" d="M96.67,49.42H95.8v-0.26h1.18v1.87h-0.32V49.42z M96.54,48.52c0-0.15,0.11-0.25,0.25-0.25
					c0.15,0,0.25,0.1,0.25,0.25c0,0.15-0.11,0.25-0.25,0.25C96.65,48.77,96.54,48.67,96.54,48.52z"/>
				<path class="st9" d="M98,49.16h0.26l0.03,0.32h0.01c0.2-0.2,0.41-0.36,0.7-0.36c0.44,0,0.65,0.26,0.65,0.75v1.16h-0.32v-1.12
					c0-0.35-0.12-0.52-0.43-0.52c-0.22,0-0.37,0.11-0.59,0.33v1.3H98V49.16z"/>
				<path class="st9" d="M100.11,51.37c0-0.15,0.11-0.3,0.31-0.42v-0.02c-0.1-0.05-0.19-0.15-0.19-0.31c0-0.12,0.08-0.25,0.22-0.35
					v-0.02c-0.13-0.1-0.23-0.26-0.23-0.48c0-0.41,0.34-0.67,0.73-0.67c0.11,0,0.2,0.02,0.28,0.05H102v0.26h-0.48
					c0.08,0.09,0.16,0.23,0.16,0.38c0,0.4-0.32,0.64-0.72,0.64c-0.1,0-0.21-0.02-0.32-0.07c-0.09,0.06-0.15,0.13-0.15,0.21
					c0,0.15,0.14,0.22,0.39,0.22h0.42c0.48,0,0.71,0.12,0.71,0.44c0,0.35-0.4,0.65-1.04,0.65C100.42,51.89,100.11,51.7,100.11,51.37
					z M101.7,51.29c0-0.18-0.14-0.23-0.43-0.23h-0.37c-0.11,0-0.2-0.01-0.29-0.03c-0.18,0.1-0.24,0.2-0.24,0.31
					c0,0.2,0.21,0.32,0.61,0.32C101.43,51.66,101.7,51.48,101.7,51.29z M101.38,49.78c0-0.26-0.19-0.44-0.43-0.44
					c-0.23,0-0.43,0.18-0.43,0.44c0,0.27,0.2,0.44,0.43,0.44C101.19,50.22,101.38,50.05,101.38,49.78z"/>
				<path class="st9" d="M103.66,48.3h0.29l-1.26,3.35h-0.28L103.66,48.3z"/>
				<path class="st9" d="M104.52,50.1c0-0.63,0.48-0.98,1.04-0.98c0.3,0,0.53,0.12,0.68,0.27l-0.16,0.2
					c-0.15-0.13-0.32-0.21-0.51-0.21c-0.43,0-0.73,0.29-0.73,0.72c0,0.43,0.29,0.71,0.72,0.71c0.23,0,0.42-0.1,0.58-0.24l0.14,0.21
					c-0.21,0.18-0.46,0.29-0.74,0.29C104.95,51.07,104.52,50.72,104.52,50.1z"/>
				<path class="st9" d="M106.63,50.1c0-0.63,0.43-0.98,0.92-0.98s0.92,0.36,0.92,0.98c0,0.62-0.43,0.98-0.92,0.98
					S106.63,50.72,106.63,50.1z M108.15,50.1c0-0.43-0.24-0.72-0.6-0.72s-0.6,0.29-0.6,0.72c0,0.43,0.24,0.71,0.6,0.71
					S108.15,50.52,108.15,50.1z"/>
				<path class="st9" d="M108.94,49.16h0.26l0.03,0.32h0.01c0.2-0.2,0.41-0.36,0.7-0.36c0.44,0,0.65,0.26,0.65,0.75v1.16h-0.32
					v-1.12c0-0.35-0.12-0.52-0.43-0.52c-0.22,0-0.37,0.11-0.59,0.33v1.3h-0.32V49.16z"/>
				<path class="st9" d="M111.57,50.3v-0.88h-0.53v-0.24l0.54-0.02l0.04-0.6h0.27v0.6h0.92v0.26h-0.92v0.89
					c0,0.33,0.11,0.51,0.47,0.51c0.17,0,0.31-0.04,0.45-0.08l0.07,0.23c-0.17,0.06-0.35,0.11-0.58,0.11
					C111.74,51.07,111.57,50.76,111.57,50.3z"/>
				<path class="st9" d="M113.52,49.16h0.27l0.03,0.44h0.01c0.2-0.3,0.49-0.49,0.83-0.49c0.14,0,0.25,0.02,0.37,0.08l-0.07,0.27
					c-0.13-0.04-0.2-0.06-0.35-0.06c-0.28,0-0.55,0.14-0.77,0.54v1.09h-0.32V49.16z"/>
				<path class="st9" d="M116.36,49.42h-0.87v-0.26h1.18v1.87h-0.32V49.42z M116.23,48.52c0-0.15,0.11-0.25,0.25-0.25
					c0.15,0,0.25,0.1,0.25,0.25c0,0.15-0.11,0.25-0.25,0.25C116.34,48.77,116.23,48.67,116.23,48.52z"/>
				<path class="st9" d="M117.99,50.82h-0.01l-0.03,0.21h-0.25v-2.74h0.32v0.75L118,49.4h0.01c0.17-0.17,0.41-0.28,0.63-0.28
					c0.5,0,0.78,0.37,0.78,0.95c0,0.64-0.4,1.01-0.84,1.01C118.39,51.07,118.17,50.98,117.99,50.82z M119.09,50.07
					c0-0.41-0.15-0.68-0.53-0.68c-0.17,0-0.36,0.08-0.55,0.28v0.93c0.17,0.16,0.37,0.22,0.5,0.22
					C118.84,50.81,119.09,50.53,119.09,50.07z"/>
				<path class="st9" d="M119.82,50.32v-1.16h0.32v1.12c0,0.35,0.12,0.52,0.43,0.52c0.22,0,0.37-0.1,0.58-0.34v-1.3h0.32v1.87h-0.26
					l-0.03-0.33h-0.02c-0.19,0.22-0.41,0.37-0.7,0.37C120.03,51.07,119.82,50.81,119.82,50.32z"/>
				<path class="st9" d="M122.51,50.3v-0.88h-0.53v-0.24l0.54-0.02l0.04-0.6h0.27v0.6h0.92v0.26h-0.92v0.89
					c0,0.33,0.11,0.51,0.47,0.51c0.17,0,0.31-0.04,0.45-0.08l0.07,0.23c-0.17,0.06-0.35,0.11-0.58,0.11
					C122.68,51.07,122.51,50.76,122.51,50.3z"/>
				<path class="st9" d="M125.11,49.42h-0.87v-0.26h1.18v1.87h-0.32V49.42z M124.99,48.52c0-0.15,0.11-0.25,0.25-0.25
					c0.15,0,0.25,0.1,0.25,0.25c0,0.15-0.11,0.25-0.25,0.25C125.1,48.77,124.99,48.67,124.99,48.52z"/>
				<path class="st9" d="M126.32,50.1c0-0.63,0.43-0.98,0.92-0.98s0.92,0.36,0.92,0.98c0,0.62-0.43,0.98-0.92,0.98
					S126.32,50.72,126.32,50.1z M127.84,50.1c0-0.43-0.24-0.72-0.6-0.72s-0.6,0.29-0.6,0.72c0,0.43,0.24,0.71,0.6,0.71
					S127.84,50.52,127.84,50.1z"/>
				<path class="st9" d="M128.64,49.16h0.26l0.03,0.32h0.02c0.2-0.2,0.41-0.36,0.7-0.36c0.44,0,0.65,0.26,0.65,0.75v1.16h-0.32
					v-1.12c0-0.35-0.12-0.52-0.43-0.52c-0.22,0-0.37,0.11-0.59,0.33v1.3h-0.32V49.16z"/>
				<path class="st9" d="M130.74,50.78l0.15-0.21c0.22,0.15,0.47,0.25,0.81,0.25c0.32,0,0.47-0.13,0.47-0.29
					c0-0.14-0.07-0.24-0.58-0.35c-0.49-0.1-0.73-0.27-0.73-0.55c0-0.3,0.26-0.53,0.78-0.53c0.28,0,0.57,0.11,0.75,0.24l-0.15,0.2
					c-0.17-0.12-0.39-0.2-0.63-0.2c-0.32,0-0.43,0.13-0.43,0.27c0,0.16,0.16,0.23,0.55,0.31c0.62,0.13,0.77,0.29,0.77,0.58
					c0,0.3-0.3,0.56-0.83,0.56C131.3,51.07,130.97,50.94,130.74,50.78z"/>
				<path class="st9" d="M134.3,48.3h0.29l-1.26,3.35h-0.28L134.3,48.3z"/>
			</g>
		</g>
	</g>
	<g>
		<text transform="matrix(1 0 0 1 16.1164 20.7055)" class="st3 st8 st10">Computing - Get feature contributions</text>
	</g>
	<rect x="15.99" y="70.08" class="st11" width="145.26" height="7.6"/>
	<rect x="15.99" y="77.68" class="st11" width="145.26" height="9.15"/>
	<rect x="15.99" y="86.83" class="st11" width="145.26" height="9.15"/>
	<rect x="15.99" y="114.59" class="st1" width="145.26" height="7.6"/>
	<g>
		<g>
			<g>
				<path class="st3" d="M18,127.3c0-0.63,0.48-0.98,1.04-0.98c0.3,0,0.53,0.12,0.68,0.27l-0.16,0.2c-0.15-0.13-0.32-0.21-0.51-0.21
					c-0.43,0-0.73,0.29-0.73,0.72c0,0.43,0.29,0.71,0.72,0.71c0.23,0,0.42-0.1,0.58-0.24l0.14,0.21c-0.21,0.18-0.46,0.29-0.74,0.29
					C18.44,128.28,18,127.92,18,127.3z"/>
				<path class="st3" d="M20.12,127.3c0-0.63,0.43-0.98,0.92-0.98s0.92,0.36,0.92,0.98c0,0.62-0.43,0.98-0.92,0.98
					S20.12,127.92,20.12,127.3z M21.64,127.3c0-0.43-0.24-0.72-0.6-0.72s-0.6,0.29-0.6,0.72c0,0.43,0.24,0.71,0.6,0.71
					S21.64,127.73,21.64,127.3z"/>
				<path class="st3" d="M22.43,126.36h0.26l0.03,0.32h0.02c0.2-0.2,0.41-0.36,0.7-0.36c0.44,0,0.65,0.26,0.65,0.75v1.16h-0.32
					v-1.12c0-0.35-0.12-0.52-0.43-0.52c-0.22,0-0.37,0.11-0.59,0.33v1.3h-0.32V126.36z"/>
				<path class="st3" d="M25.05,127.51v-0.88h-0.53v-0.24l0.54-0.02l0.04-0.6h0.27v0.6h0.92v0.26h-0.92v0.89
					c0,0.33,0.11,0.51,0.47,0.51c0.17,0,0.31-0.03,0.45-0.08l0.07,0.23c-0.17,0.06-0.35,0.11-0.58,0.11
					C25.23,128.28,25.05,127.97,25.05,127.51z"/>
				<path class="st3" d="M27.01,126.36h0.27l0.03,0.44h0.01c0.2-0.3,0.49-0.49,0.83-0.49c0.14,0,0.25,0.02,0.37,0.08l-0.07,0.27
					c-0.13-0.04-0.2-0.06-0.35-0.06c-0.28,0-0.55,0.14-0.77,0.54v1.09h-0.32V126.36z"/>
				<path class="st3" d="M29.85,126.62h-0.87v-0.26h1.18v1.87h-0.32V126.62z M29.72,125.73c0-0.15,0.11-0.25,0.25-0.25
					c0.15,0,0.25,0.1,0.25,0.25c0,0.15-0.11,0.25-0.25,0.25C29.83,125.97,29.72,125.87,29.72,125.73z"/>
				<path class="st3" d="M31.48,128.02h-0.01l-0.03,0.21h-0.25v-2.74h0.32v0.75l-0.02,0.36h0.01c0.17-0.17,0.41-0.29,0.63-0.29
					c0.5,0,0.78,0.37,0.78,0.95c0,0.64-0.4,1.01-0.84,1.01C31.88,128.28,31.65,128.18,31.48,128.02z M32.58,127.27
					c0-0.41-0.15-0.68-0.53-0.68c-0.17,0-0.36,0.08-0.55,0.28v0.93c0.17,0.16,0.37,0.22,0.5,0.22
					C32.33,128.01,32.58,127.73,32.58,127.27z"/>
				<path class="st3" d="M33.31,127.52v-1.16h0.32v1.12c0,0.35,0.12,0.52,0.43,0.52c0.21,0,0.37-0.1,0.58-0.34v-1.3h0.32v1.87H34.7
					l-0.03-0.33h-0.02c-0.19,0.22-0.41,0.37-0.7,0.37C33.52,128.28,33.31,128.02,33.31,127.52z"/>
				<path class="st3" d="M36,127.51v-0.88h-0.53v-0.24l0.54-0.02l0.04-0.6h0.27v0.6h0.92v0.26h-0.92v0.89
					c0,0.33,0.11,0.51,0.47,0.51c0.17,0,0.31-0.03,0.45-0.08l0.07,0.23c-0.17,0.06-0.35,0.11-0.58,0.11
					C36.17,128.28,36,127.97,36,127.51z"/>
				<path class="st3" d="M38.6,126.62h-0.87v-0.26h1.18v1.87H38.6V126.62z M38.48,125.73c0-0.15,0.11-0.25,0.25-0.25
					c0.15,0,0.25,0.1,0.25,0.25c0,0.15-0.11,0.25-0.25,0.25C38.58,125.97,38.48,125.87,38.48,125.73z"/>
				<path class="st3" d="M39.81,127.3c0-0.63,0.43-0.98,0.92-0.98s0.92,0.36,0.92,0.98c0,0.62-0.43,0.98-0.92,0.98
					S39.81,127.92,39.81,127.3z M41.33,127.3c0-0.43-0.24-0.72-0.6-0.72s-0.6,0.29-0.6,0.72c0,0.43,0.24,0.71,0.6,0.71
					S41.33,127.73,41.33,127.3z"/>
				<path class="st3" d="M42.13,126.36h0.26l0.03,0.32h0.01c0.2-0.2,0.41-0.36,0.7-0.36c0.44,0,0.65,0.26,0.65,0.75v1.16h-0.32
					v-1.12c0-0.35-0.12-0.52-0.43-0.52c-0.22,0-0.37,0.11-0.59,0.33v1.3h-0.32V126.36z"/>
				<path class="st3" d="M44.23,127.99l0.15-0.21c0.22,0.15,0.47,0.25,0.81,0.25c0.32,0,0.47-0.13,0.47-0.29
					c0-0.14-0.07-0.24-0.58-0.35c-0.49-0.1-0.73-0.27-0.73-0.55c0-0.3,0.26-0.53,0.78-0.53c0.28,0,0.57,0.11,0.75,0.24l-0.15,0.2
					c-0.17-0.12-0.39-0.2-0.63-0.2c-0.31,0-0.43,0.13-0.43,0.27c0,0.16,0.16,0.23,0.55,0.31c0.62,0.13,0.77,0.29,0.77,0.58
					c0,0.3-0.3,0.56-0.83,0.56C44.78,128.28,44.46,128.14,44.23,127.99z"/>
			</g>
		</g>
	</g>
	<g>
		<g>
			<g>
				<path class="st3" d="M18,136.27c0-0.63,0.48-0.98,1.04-0.98c0.3,0,0.53,0.12,0.68,0.27l-0.16,0.2
					c-0.15-0.13-0.32-0.21-0.51-0.21c-0.43,0-0.73,0.29-0.73,0.72c0,0.43,0.29,0.71,0.72,0.71c0.23,0,0.42-0.1,0.58-0.24l0.14,0.21
					c-0.21,0.18-0.46,0.29-0.74,0.29C18.44,137.24,18,136.89,18,136.27z"/>
				<path class="st3" d="M20.12,136.27c0-0.63,0.43-0.98,0.92-0.98s0.92,0.36,0.92,0.98c0,0.62-0.43,0.98-0.92,0.98
					S20.12,136.89,20.12,136.27z M21.64,136.27c0-0.43-0.24-0.72-0.6-0.72s-0.6,0.29-0.6,0.72c0,0.43,0.24,0.71,0.6,0.71
					S21.64,136.69,21.64,136.27z"/>
				<path class="st3" d="M22.43,135.33h0.26l0.03,0.32h0.02c0.2-0.2,0.41-0.36,0.7-0.36c0.44,0,0.65,0.26,0.65,0.75v1.16h-0.32
					v-1.12c0-0.35-0.12-0.52-0.43-0.52c-0.22,0-0.37,0.11-0.59,0.33v1.3h-0.32V135.33z"/>
				<path class="st3" d="M25.05,136.47v-0.88h-0.53v-0.24l0.54-0.02l0.04-0.6h0.27v0.6h0.92v0.26h-0.92v0.89
					c0,0.33,0.11,0.51,0.47,0.51c0.17,0,0.31-0.03,0.45-0.08l0.07,0.23c-0.17,0.06-0.35,0.11-0.58,0.11
					C25.23,137.24,25.05,136.93,25.05,136.47z"/>
				<path class="st3" d="M27.01,135.33h0.27l0.03,0.44h0.01c0.2-0.3,0.49-0.49,0.83-0.49c0.14,0,0.25,0.02,0.37,0.08l-0.07,0.27
					c-0.13-0.04-0.2-0.06-0.35-0.06c-0.28,0-0.55,0.14-0.77,0.54v1.09h-0.32V135.33z"/>
				<path class="st3" d="M29.85,135.59h-0.87v-0.26h1.18v1.87h-0.32V135.59z M29.72,134.69c0-0.15,0.11-0.25,0.25-0.25
					c0.15,0,0.25,0.1,0.25,0.25c0,0.15-0.11,0.25-0.25,0.25C29.83,134.94,29.72,134.84,29.72,134.69z"/>
				<path class="st3" d="M31.48,136.99h-0.01l-0.03,0.21h-0.25v-2.74h0.32v0.75l-0.02,0.36h0.01c0.17-0.17,0.41-0.29,0.63-0.29
					c0.5,0,0.78,0.37,0.78,0.95c0,0.64-0.4,1.01-0.84,1.01C31.88,137.24,31.65,137.15,31.48,136.99z M32.58,136.24
					c0-0.41-0.15-0.68-0.53-0.68c-0.17,0-0.36,0.08-0.55,0.28v0.93c0.17,0.16,0.37,0.22,0.5,0.22
					C32.33,136.97,32.58,136.7,32.58,136.24z"/>
				<path class="st3" d="M33.31,136.49v-1.16h0.32v1.12c0,0.35,0.12,0.52,0.43,0.52c0.21,0,0.37-0.1,0.58-0.34v-1.3h0.32v1.87H34.7
					l-0.03-0.33h-0.02c-0.19,0.22-0.41,0.37-0.7,0.37C33.52,137.24,33.31,136.98,33.31,136.49z"/>
				<path class="st3" d="M36,136.47v-0.88h-0.53v-0.24l0.54-0.02l0.04-0.6h0.27v0.6h0.92v0.26h-0.92v0.89
					c0,0.33,0.11,0.51,0.47,0.51c0.17,0,0.31-0.03,0.45-0.08l0.07,0.23c-0.17,0.06-0.35,0.11-0.58,0.11
					C36.17,137.24,36,136.93,36,136.47z"/>
				<path class="st3" d="M38.6,135.59h-0.87v-0.26h1.18v1.87H38.6V135.59z M38.48,134.69c0-0.15,0.11-0.25,0.25-0.25
					c0.15,0,0.25,0.1,0.25,0.25c0,0.15-0.11,0.25-0.25,0.25C38.58,134.94,38.48,134.84,38.48,134.69z"/>
				<path class="st3" d="M39.81,136.27c0-0.63,0.43-0.98,0.92-0.98s0.92,0.36,0.92,0.98c0,0.62-0.43,0.98-0.92,0.98
					S39.81,136.89,39.81,136.27z M41.33,136.27c0-0.43-0.24-0.72-0.6-0.72s-0.6,0.29-0.6,0.72c0,0.43,0.24,0.71,0.6,0.71
					S41.33,136.69,41.33,136.27z"/>
				<path class="st3" d="M42.13,135.33h0.26l0.03,0.32h0.01c0.2-0.2,0.41-0.36,0.7-0.36c0.44,0,0.65,0.26,0.65,0.75v1.16h-0.32
					v-1.12c0-0.35-0.12-0.52-0.43-0.52c-0.22,0-0.37,0.11-0.59,0.33v1.3h-0.32V135.33z"/>
				<path class="st3" d="M44.23,136.95l0.15-0.21c0.22,0.15,0.47,0.25,0.81,0.25c0.32,0,0.47-0.13,0.47-0.29
					c0-0.14-0.07-0.24-0.58-0.35c-0.49-0.1-0.73-0.27-0.73-0.55c0-0.3,0.26-0.53,0.78-0.53c0.28,0,0.57,0.11,0.75,0.24l-0.15,0.2
					c-0.17-0.12-0.39-0.2-0.63-0.2c-0.31,0-0.43,0.13-0.43,0.27c0,0.16,0.16,0.23,0.55,0.31c0.62,0.13,0.77,0.29,0.77,0.58
					c0,0.3-0.3,0.56-0.83,0.56C44.78,137.24,44.46,137.11,44.23,136.95z"/>
				<path class="st3" d="M46.99,136.92c0-0.19,0.14-0.33,0.31-0.33s0.31,0.13,0.31,0.33c0,0.2-0.14,0.33-0.31,0.33
					S46.99,137.11,46.99,136.92z"/>
				<path class="st3" d="M48.74,134.46h0.32v1.85h0.02l1-0.98h0.37l-1.38,1.36v0.51h-0.32V134.46z M49.46,136.21l0.19-0.21l0.89,1.2
					h-0.35L49.46,136.21z"/>
				<path class="st3" d="M50.78,136.26c0-0.61,0.45-0.98,0.95-0.98c0.54,0,0.85,0.35,0.85,0.88c0,0.07-0.01,0.14-0.01,0.19h-1.58
					v-0.25h1.39l-0.08,0.09c0-0.44-0.22-0.66-0.56-0.66c-0.35,0-0.65,0.26-0.65,0.73c0,0.48,0.31,0.73,0.73,0.73
					c0.22,0,0.4-0.07,0.57-0.18l0.12,0.21c-0.18,0.12-0.42,0.22-0.72,0.22C51.23,137.24,50.78,136.88,50.78,136.26z"/>
				<path class="st3" d="M52.97,137.96l0.07-0.25c0.05,0.01,0.11,0.03,0.17,0.03c0.26,0,0.42-0.17,0.51-0.4l0.05-0.14l-0.87-1.87
					h0.32l0.45,1.03c0.07,0.17,0.15,0.36,0.23,0.54h0.01c0.07-0.18,0.14-0.37,0.2-0.54l0.4-1.03h0.31l-0.83,2.02
					c-0.14,0.37-0.37,0.65-0.79,0.65C53.13,138,53.03,137.99,52.97,137.96z"/>
			</g>
		</g>
	</g>
	<g>
		<text transform="matrix(1 0 0 1 64.296 128.6089)" class="st3 st4 st6">Object</text>
	</g>
	<g>
		<text transform="matrix(1 0 0 1 84.1945 128.6089)" class="st7 st4 st6">Feature contribution object (key-value pair).</text>
	</g>
	<g>
		<text transform="matrix(1 0 0 1 84.5832 137.1968)" class="st7 st4 st6">Feature name</text>
	</g>
	<g>
		<text transform="matrix(1 0 0 1 64.8947 137.3432)" class="st3 st4 st6">String</text>
	</g>
	<g>
		<g>
			<g>
				<path class="st3" d="M18,145.51c0-0.63,0.48-0.98,1.04-0.98c0.3,0,0.53,0.12,0.68,0.27l-0.16,0.2
					c-0.15-0.13-0.32-0.21-0.51-0.21c-0.43,0-0.73,0.29-0.73,0.72c0,0.43,0.29,0.71,0.72,0.71c0.23,0,0.42-0.1,0.58-0.24l0.14,0.21
					c-0.21,0.18-0.46,0.29-0.74,0.29C18.44,146.49,18,146.13,18,145.51z"/>
				<path class="st3" d="M20.12,145.51c0-0.63,0.43-0.98,0.92-0.98s0.92,0.36,0.92,0.98c0,0.62-0.43,0.98-0.92,0.98
					S20.12,146.13,20.12,145.51z M21.64,145.51c0-0.43-0.24-0.72-0.6-0.72s-0.6,0.29-0.6,0.72c0,0.43,0.24,0.71,0.6,0.71
					S21.64,145.94,21.64,145.51z"/>
				<path class="st3" d="M22.43,144.57h0.26l0.03,0.32h0.02c0.2-0.2,0.41-0.36,0.7-0.36c0.44,0,0.65,0.26,0.65,0.75v1.16h-0.32
					v-1.12c0-0.35-0.12-0.52-0.43-0.52c-0.22,0-0.37,0.11-0.59,0.33v1.3h-0.32V144.57z"/>
				<path class="st3" d="M25.05,145.71v-0.88h-0.53v-0.24l0.54-0.02l0.04-0.6h0.27v0.6h0.92v0.26h-0.92v0.89
					c0,0.33,0.11,0.51,0.47,0.51c0.17,0,0.31-0.03,0.45-0.08l0.07,0.23c-0.17,0.06-0.35,0.11-0.58,0.11
					C25.23,146.49,25.05,146.18,25.05,145.71z"/>
				<path class="st3" d="M27.01,144.57h0.27l0.03,0.44h0.01c0.2-0.3,0.49-0.49,0.83-0.49c0.14,0,0.25,0.02,0.37,0.08l-0.07,0.27
					c-0.13-0.04-0.2-0.06-0.35-0.06c-0.28,0-0.55,0.14-0.77,0.54v1.09h-0.32V144.57z"/>
				<path class="st3" d="M29.85,144.83h-0.87v-0.26h1.18v1.87h-0.32V144.83z M29.72,143.93c0-0.15,0.11-0.25,0.25-0.25
					c0.15,0,0.25,0.1,0.25,0.25c0,0.15-0.11,0.25-0.25,0.25C29.83,144.18,29.72,144.08,29.72,143.93z"/>
				<path class="st3" d="M31.48,146.23h-0.01l-0.03,0.21h-0.25v-2.74h0.32v0.75l-0.02,0.36h0.01c0.17-0.17,0.41-0.29,0.63-0.29
					c0.5,0,0.78,0.37,0.78,0.95c0,0.64-0.4,1.01-0.84,1.01C31.88,146.49,31.65,146.39,31.48,146.23z M32.58,145.48
					c0-0.41-0.15-0.68-0.53-0.68c-0.17,0-0.36,0.08-0.55,0.28V146c0.17,0.16,0.37,0.22,0.5,0.22
					C32.33,146.22,32.58,145.94,32.58,145.48z"/>
				<path class="st3" d="M33.31,145.73v-1.16h0.32v1.12c0,0.35,0.12,0.52,0.43,0.52c0.21,0,0.37-0.1,0.58-0.34v-1.3h0.32v1.87H34.7
					l-0.03-0.33h-0.02c-0.19,0.22-0.41,0.37-0.7,0.37C33.52,146.49,33.31,146.23,33.31,145.73z"/>
				<path class="st3" d="M36,145.71v-0.88h-0.53v-0.24l0.54-0.02l0.04-0.6h0.27v0.6h0.92v0.26h-0.92v0.89
					c0,0.33,0.11,0.51,0.47,0.51c0.17,0,0.31-0.03,0.45-0.08l0.07,0.23c-0.17,0.06-0.35,0.11-0.58,0.11
					C36.17,146.49,36,146.18,36,145.71z"/>
				<path class="st3" d="M38.6,144.83h-0.87v-0.26h1.18v1.87H38.6V144.83z M38.48,143.93c0-0.15,0.11-0.25,0.25-0.25
					c0.15,0,0.25,0.1,0.25,0.25c0,0.15-0.11,0.25-0.25,0.25C38.58,144.18,38.48,144.08,38.48,143.93z"/>
				<path class="st3" d="M39.81,145.51c0-0.63,0.43-0.98,0.92-0.98s0.92,0.36,0.92,0.98c0,0.62-0.43,0.98-0.92,0.98
					S39.81,146.13,39.81,145.51z M41.33,145.51c0-0.43-0.24-0.72-0.6-0.72s-0.6,0.29-0.6,0.72c0,0.43,0.24,0.71,0.6,0.71
					S41.33,145.94,41.33,145.51z"/>
				<path class="st3" d="M42.13,144.57h0.26l0.03,0.32h0.01c0.2-0.2,0.41-0.36,0.7-0.36c0.44,0,0.65,0.26,0.65,0.75v1.16h-0.32
					v-1.12c0-0.35-0.12-0.52-0.43-0.52c-0.22,0-0.37,0.11-0.59,0.33v1.3h-0.32V144.57z"/>
				<path class="st3" d="M44.23,146.2l0.15-0.21c0.22,0.15,0.47,0.25,0.81,0.25c0.32,0,0.47-0.13,0.47-0.29
					c0-0.14-0.07-0.24-0.58-0.35c-0.49-0.1-0.73-0.27-0.73-0.55c0-0.3,0.26-0.53,0.78-0.53c0.28,0,0.57,0.11,0.75,0.24l-0.15,0.2
					c-0.17-0.12-0.39-0.2-0.63-0.2c-0.31,0-0.43,0.13-0.43,0.27c0,0.16,0.16,0.23,0.55,0.31c0.62,0.13,0.77,0.29,0.77,0.58
					c0,0.3-0.3,0.56-0.83,0.56C44.78,146.49,44.46,146.35,44.23,146.2z"/>
				<path class="st3" d="M46.99,146.16c0-0.19,0.14-0.33,0.31-0.33s0.31,0.13,0.31,0.33c0,0.2-0.14,0.33-0.31,0.33
					S46.99,146.36,46.99,146.16z"/>
				<path class="st3" d="M48.53,144.57h0.33l0.43,1.06c0.07,0.19,0.14,0.37,0.21,0.55h0.02c0.07-0.18,0.13-0.37,0.2-0.55l0.43-1.06
					h0.31l-0.78,1.87h-0.36L48.53,144.57z"/>
				<path class="st3" d="M50.83,145.96c0-0.42,0.39-0.62,1.36-0.7c-0.01-0.25-0.13-0.47-0.5-0.47c-0.24,0-0.48,0.12-0.65,0.22
					l-0.13-0.21c0.19-0.12,0.51-0.27,0.83-0.27c0.51,0,0.76,0.3,0.76,0.77v1.15h-0.27l-0.03-0.25H52.2c-0.2,0.16-0.47,0.3-0.73,0.3
					C51.12,146.49,50.83,146.29,50.83,145.96z M52.19,145.95v-0.48c-0.8,0.06-1.04,0.22-1.04,0.46c0,0.21,0.19,0.3,0.41,0.3
					C51.76,146.23,51.97,146.13,52.19,145.95z"/>
				<path class="st3" d="M53.66,145.81v-1.85h-0.66v-0.26h0.98v2.13c0,0.27,0.15,0.38,0.37,0.38c0.11,0,0.22-0.03,0.35-0.08
					l0.08,0.24c-0.17,0.07-0.3,0.11-0.5,0.11C53.88,146.49,53.66,146.26,53.66,145.81z"/>
				<path class="st3" d="M55.19,145.73v-1.16h0.32v1.12c0,0.35,0.12,0.52,0.43,0.52c0.21,0,0.37-0.1,0.58-0.34v-1.3h0.32v1.87h-0.26
					l-0.03-0.33h-0.02c-0.19,0.22-0.41,0.37-0.7,0.37C55.4,146.49,55.19,146.23,55.19,145.73z"/>
				<path class="st3" d="M57.35,145.5c0-0.61,0.45-0.98,0.95-0.98c0.54,0,0.85,0.35,0.85,0.88c0,0.07-0.01,0.14-0.01,0.19h-1.58
					v-0.25h1.39l-0.08,0.09c0-0.44-0.22-0.66-0.56-0.66c-0.35,0-0.65,0.26-0.65,0.73c0,0.48,0.32,0.73,0.73,0.73
					c0.22,0,0.4-0.07,0.57-0.18l0.12,0.21c-0.18,0.12-0.42,0.22-0.72,0.22C57.79,146.49,57.35,146.13,57.35,145.5z"/>
			</g>
		</g>
	</g>
	<g>
		<text transform="matrix(1 0 0 1 84.5832 146.4409)" class="st7 st4 st6">Feature contribution</text>
	</g>
	<g>
		<text transform="matrix(1 0 0 1 63.1007 146.5864)" class="st3 st4 st6">Number</text>
	</g>
	<g>
		<text transform="matrix(1 0 0 1 19.2199 119.978)" class="st3 st4 st5">Field</text>
	</g>
	<g>
		<text transform="matrix(1 0 0 1 64.8742 119.978)" class="st3 st4 st5">Type</text>
	</g>
	<g>
		<text transform="matrix(1 0 0 1 84.2277 119.978)" class="st3 st4 st5">Description</text>
	</g>
	<g>
		<text transform="matrix(1 0 0 1 16.1164 111.1372)" class="st3 st8 st5">Success 200</text>
	</g>
	<rect x="15.99" y="114.59" class="st11" width="145.26" height="7.6"/>
	<rect x="15.99" y="122.18" class="st11" width="145.26" height="9.15"/>
	<rect x="15.99" y="131.33" class="st11" width="145.26" height="9.15"/>
	<rect x="15.99" y="140.48" class="st11" width="145.26" height="9.15"/>
	
		<rect x="56.97" y="73.8" transform="matrix(-1.836970e-16 1 -1 -1.836970e-16 152.9449 13.1135)" class="st11" width="25.9" height="18.45"/>
	
		<rect x="52.39" y="122.89" transform="matrix(-1.836970e-16 1 -1 -1.836970e-16 202.0276 62.1962)" class="st11" width="35.05" height="18.45"/>
</g>
</svg>
