<?xml version="1.0" encoding="utf-8"?>
<!-- Generator: Adobe Illustrator 24.3.0, SVG Export Plug-In . SVG Version: 6.00 Build 0)  -->
<svg version="1.1" id="Layer_1" xmlns="http://www.w3.org/2000/svg" xmlns:xlink="http://www.w3.org/1999/xlink" x="0px" y="0px"
	 viewBox="0 0 9.53 5.07" style="enable-background:new 0 0 9.53 5.07;" xml:space="preserve">
<style type="text/css">
	.st0{fill:#D54F28;}
	.st1{fill:none;stroke:#FFFFFF;stroke-width:0.5;stroke-linecap:round;stroke-linejoin:round;stroke-miterlimit:10;}
</style>
<g>
	<path class="st0" d="M0.85,4.65l0.8-2.47c0.02-0.07,0.1-0.11,0.17-0.08l0.91,0.42c0.07,0.03,0.14,0,0.17-0.07l0.92-2.37
		C3.86-0.02,4-0.03,4.05,0.07l0.62,1.3C4.7,1.44,4.79,1.47,4.85,1.42l0.41-0.28C5.32,1.1,5.41,1.12,5.45,1.2l1.02,2.24
		c0.03,0.07,0.13,0.1,0.19,0.05L7.15,3.1C7.2,3.06,7.27,3.06,7.31,3.11L8.77,4.6C8.85,4.68,8.8,4.82,8.68,4.82H0.97
		C0.88,4.82,0.82,4.73,0.85,4.65z"/>
	<line class="st1" x1="0.25" y1="4.82" x2="9.28" y2="4.82"/>
</g>
</svg>
