<?xml version="1.0" encoding="utf-8"?>
<!-- Generator: Adobe Illustrator 24.3.0, SVG Export Plug-In . SVG Version: 6.00 Build 0)  -->
<svg version="1.1" id="Layer_1" xmlns="http://www.w3.org/2000/svg" xmlns:xlink="http://www.w3.org/1999/xlink" x="0px" y="0px"
	 viewBox="0 0 14.13 18.4" style="enable-background:new 0 0 14.13 18.4;" xml:space="preserve">
<style type="text/css">
	.st0{fill:#2F0C3A;}
</style>
<g>
	<g>
		<circle class="st0" cx="7.07" cy="2.86" r="2.86"/>
		<path class="st0" d="M13.77,4.63c0.49-0.49,0.49-1.27,0-1.76l0,0c-0.49-0.49-1.27-0.49-1.76,0L9.09,5.8
			c-1.12,1.12-2.93,1.12-4.05,0L2.14,2.9C1.66,2.42,0.88,2.39,0.39,2.85c-0.51,0.48-0.52,1.29-0.03,1.78L4.2,8.47l-1.53,6.41h1.54
			v2.26c0,0.69,0.57,1.28,1.27,1.27c0.67-0.01,1.22-0.56,1.22-1.24v-2.29h0.74v2.26c0,0.69,0.57,1.28,1.27,1.27
			c0.67-0.01,1.22-0.56,1.22-1.24v-2.29h1.54L9.93,8.47L13.77,4.63z"/>
	</g>
</g>
</svg>
