<?xml version="1.0" encoding="UTF-8" standalone="no"?>
<!DOCTYPE svg PUBLIC "-//W3C//DTD SVG 1.1//EN" "http://www.w3.org/Graphics/SVG/1.1/DTD/svg11.dtd">
<svg width="100%" height="100%" viewBox="0 0 25 32" version="1.1" xmlns="http://www.w3.org/2000/svg" xmlns:xlink="http://www.w3.org/1999/xlink" xml:space="preserve" xmlns:serif="http://www.serif.com/" style="fill-rule:evenodd;clip-rule:evenodd;stroke-miterlimit:10;">
    <g>
        <g>
            <g>
                <g transform="matrix(1,0,0,1,0,-952.362)">
                    <path d="M3.12,961.09C2.96,961.11 2.82,961.21 2.74,961.35L0.33,965.36C0.18,965.61 0.26,965.94 0.52,966.09C0.53,966.09 0.53,966.1 0.54,966.1L7.57,969.9C7.81,970.07 8.15,970.01 8.32,969.77C8.49,969.53 8.43,969.19 8.19,969.02C8.15,968.99 8.12,968.97 8.08,968.96L4.09,966.8L5.85,963.87L20.66,973.02L19.35,975.08L11.31,970.72C11.05,970.58 10.73,970.67 10.58,970.93C10.58,970.94 10.57,970.94 10.57,970.95L5.41,981.18C5.25,981.43 5.33,981.76 5.58,981.92C5.83,982.08 6.16,982 6.32,981.75C6.34,981.72 6.35,981.69 6.36,981.66L11.28,971.94L13.45,973.11L17.72,981.66C17.83,981.94 18.14,982.07 18.41,981.97C18.69,981.86 18.82,981.55 18.72,981.28C18.71,981.25 18.69,981.22 18.68,981.19L15.08,974.01L19.28,976.28C19.53,976.42 19.84,976.34 19.99,976.1L20.1,975.92L21.93,977.07C22.18,977.23 22.51,977.16 22.67,976.91C22.67,976.9 22.68,976.9 22.68,976.89L23.75,975.02C23.89,974.77 23.81,974.45 23.57,974.3L21.83,973.21L21.86,973.16C22.02,972.91 21.95,972.58 21.7,972.42L21.69,972.42L3.49,961.18C3.37,961.1 3.24,961.07 3.12,961.09ZM3.38,962.36L4.93,963.31L3.14,966.3L1.54,965.43L3.38,962.36ZM21.24,974.1L22.54,974.91L22,975.86L20.65,975.02L21.24,974.1Z" style="fill:white;fill-rule:nonzero;stroke:white;stroke-width:0.5px;"/>
                </g>
                <g>
                    <path d="M18.89,5.24C19.92,5 20.57,3.96 20.32,2.92C20.08,1.9 19.04,1.25 18,1.5C16.96,1.75 16.32,2.78 16.57,3.82C16.81,4.85 17.85,5.49 18.89,5.24ZM18.17,2.19C18.82,2.04 19.48,2.44 19.63,3.09C19.78,3.74 19.38,4.4 18.73,4.55C18.08,4.7 17.42,4.3 17.27,3.65C17.11,3 17.52,2.34 18.17,2.19Z" style="fill:white;fill-rule:nonzero;stroke:white;stroke-width:0.5px;"/>
                    <path d="M7.24,7.99C8.16,7.77 8.76,6.94 8.72,6.03L10.86,5.53C11.18,6.25 11.92,6.71 12.71,6.67L13.21,8.81C12.38,9.18 11.9,10.1 12.11,11.01C12.35,12.04 13.39,12.69 14.43,12.44C15.35,12.22 15.95,11.39 15.91,10.48L18.05,9.98C18.37,10.7 19.11,11.16 19.9,11.12L20.4,13.26C19.57,13.63 19.09,14.55 19.3,15.46C19.54,16.49 20.58,17.14 21.62,16.89C22.65,16.65 23.3,15.61 23.05,14.57C22.83,13.65 22,13.05 21.09,13.09L20.59,10.95C21.42,10.58 21.9,9.66 21.69,8.75C21.45,7.72 20.41,7.07 19.37,7.32C18.45,7.54 17.85,8.37 17.89,9.28L15.75,9.78C15.43,9.06 14.69,8.6 13.9,8.64L13.4,6.5C14.23,6.13 14.71,5.21 14.49,4.3C14.25,3.27 13.21,2.62 12.17,2.87C11.25,3.09 10.65,3.92 10.69,4.83L8.55,5.33C8.18,4.5 7.26,4.02 6.35,4.23C5.32,4.48 4.68,5.52 4.92,6.55C5.16,7.58 6.2,8.23 7.24,7.99ZM22.37,14.74C22.52,15.39 22.12,16.05 21.47,16.2C20.82,16.35 20.16,15.95 20.01,15.3C19.86,14.65 20.26,13.99 20.91,13.84C21.56,13.68 22.22,14.09 22.37,14.74ZM19.54,8.01C20.19,7.86 20.85,8.26 21,8.91C21.15,9.56 20.75,10.22 20.1,10.37C19.45,10.52 18.79,10.12 18.64,9.47C18.49,8.82 18.89,8.17 19.54,8.01ZM15.17,10.29C15.32,10.94 14.92,11.6 14.27,11.75C13.62,11.9 12.96,11.5 12.81,10.85C12.66,10.2 13.06,9.54 13.71,9.39C14.36,9.24 15.02,9.64 15.17,10.29ZM12.34,3.56C12.99,3.41 13.65,3.81 13.8,4.46C13.95,5.11 13.55,5.77 12.9,5.92C12.25,6.07 11.59,5.67 11.44,5.02C11.29,4.37 11.69,3.71 12.34,3.56ZM6.52,4.93C7.17,4.78 7.83,5.18 7.98,5.83C8.13,6.48 7.73,7.14 7.08,7.29C6.43,7.44 5.77,7.04 5.62,6.39C5.46,5.74 5.87,5.08 6.52,4.93Z" style="fill:white;fill-rule:nonzero;stroke:white;stroke-width:0.5px;"/>
                    <circle cx="21.19" cy="15.02" r="1.47" style="fill:white;stroke:white;stroke-width:0.5px;"/>
                    <circle cx="6.8" cy="6.11" r="1.47" style="fill:white;stroke:white;stroke-width:0.5px;"/>
                </g>
                <path d="M23.11,22.41C23.11,22.47 22.37,24.23 22.37,24.23L20.82,23.6L20.2,22.75L21.16,21.24L22.39,21.65L23.11,22.41Z" style="fill:white;fill-rule:nonzero;stroke:white;stroke-width:0.5px;"/>
                <path d="M3.43,9.58L5.58,10.32C5.58,10.32 4.92,12.13 4.92,12.18C4.92,12.23 3.99,13.8 3.99,13.8L2.42,14.22C2.42,14.22 1.22,13.71 1.19,13.54C1.16,13.37 1.37,12.21 1.37,12.21L2.13,10.72L3.43,9.58Z" style="fill:white;fill-rule:nonzero;stroke:white;stroke-width:0.5px;"/>
            </g>
        </g>
    </g>
</svg>
