<?xml version="1.0" encoding="utf-8"?>
<!-- Generator: Adobe Illustrator 24.3.0, SVG Export Plug-In . SVG Version: 6.00 Build 0)  -->
<svg version="1.1" id="Layer_1" xmlns="http://www.w3.org/2000/svg" xmlns:xlink="http://www.w3.org/1999/xlink" x="0px" y="0px"
	 viewBox="0 0 11.9 14.2" style="enable-background:new 0 0 11.9 14.2;" xml:space="preserve">
<style type="text/css">
	.st0{fill:#FFFFFF;}
</style>
<g>
	<g>
		<g transform="translate(0,-952.36218)">
			<g>
				<path class="st0" d="M1.6,956.1c-0.1,0-0.1,0.1-0.2,0.1l-1.2,2c-0.1,0.1,0,0.3,0.1,0.4c0,0,0,0,0,0l3.5,1.9
					c0.1,0.1,0.3,0.1,0.4-0.1c0.1-0.1,0.1-0.3-0.1-0.4c0,0,0,0-0.1,0l-2-1.1l0.9-1.4l7.3,4.5l-0.6,1l-3.9-2.1
					c-0.1-0.1-0.3,0-0.4,0.1c0,0,0,0,0,0l-2.5,5c-0.1,0.1,0,0.3,0.1,0.4c0.1,0.1,0.3,0,0.4-0.1c0,0,0,0,0,0l2.4-4.8l1.1,0.6l2.1,4.2
					c0.1,0.1,0.2,0.2,0.3,0.1c0.1-0.1,0.2-0.2,0.1-0.3c0,0,0,0,0,0l-1.8-3.5l2.1,1.1c0.1,0.1,0.3,0,0.3-0.1l0.1-0.1l0.9,0.6
					c0.1,0.1,0.3,0,0.4-0.1c0,0,0,0,0,0l0.5-0.9c0.1-0.1,0-0.3-0.1-0.4l-0.9-0.5l0,0c0.1-0.1,0-0.3-0.1-0.4c0,0,0,0,0,0l-8.9-5.5
					C1.7,956.1,1.6,956.1,1.6,956.1z M1.7,956.7l0.8,0.5l-0.9,1.5l-0.8-0.4L1.7,956.7z M10.5,962.5l0.6,0.4l-0.3,0.5l-0.7-0.4
					L10.5,962.5z"/>
				<path class="st0" d="M2.9,966.5c-0.1,0-0.2,0-0.2-0.1c-0.2-0.1-0.3-0.4-0.1-0.6l2.5-5c0.1-0.2,0.4-0.3,0.6-0.2l3.8,2.1l0.5-0.7
					l-7-4.3l-0.7,1.1l1.8,1c0,0,0,0,0.1,0c0.2,0.1,0.2,0.4,0.1,0.6c-0.1,0.1-0.2,0.2-0.3,0.2c-0.1,0-0.2,0-0.3-0.1l-3.4-1.9
					c-0.2-0.1-0.3-0.4-0.2-0.6l1.2-2c0.1-0.1,0.2-0.2,0.3-0.2h0c0.1,0,0.2,0,0.3,0.1l9,5.5c0.1,0,0.1,0.1,0.2,0.3c0,0.1,0,0.1,0,0.2
					l0.7,0.5c0.2,0.1,0.3,0.4,0.1,0.6l-0.5,0.9c-0.1,0.2-0.4,0.3-0.6,0.2l-0.8-0.5c-0.1,0.2-0.4,0.2-0.5,0.1l-1.6-0.9l1.5,3
					c0,0,0,0,0,0.1c0,0.1,0,0.2,0,0.3c0,0.1-0.1,0.2-0.2,0.2c-0.1,0-0.2,0-0.3,0c-0.1,0-0.2-0.1-0.2-0.2l-2.1-4.1l-0.9-0.5l-2.3,4.6
					c0,0,0,0,0,0.1C3.2,966.4,3.1,966.5,2.9,966.5C3,966.5,3,966.5,2.9,966.5z M5.5,961C5.4,961,5.4,961,5.5,961l-2.6,5.1
					c0,0.1,0,0.1,0,0.1c0,0,0.1,0,0.1,0c0,0,0,0,0.1,0l2.5-5l1.3,0.7l2.1,4.2c0,0,0,0.1,0.1,0.1c0,0,0,0,0.1,0c0,0,0,0,0,0
					c0,0,0,0,0-0.1L7,962l2.5,1.4c0,0,0.1,0,0.1,0l0.1-0.2l1,0.7c0,0,0.1,0,0.1,0l0.5-0.9c0,0,0-0.1,0-0.1l-1-0.6l0.1-0.1
					c0-0.1,0-0.1,0-0.1s0,0,0-0.1l0,0l-8.9-5.5c0,0,0,0-0.1,0c0,0,0,0-0.1,0l-1.2,2c0,0,0,0.1,0,0.1l3.5,1.9c0.1,0,0.1,0,0.1,0
					c0,0,0-0.1,0-0.1L1.8,959l1-1.7l7.6,4.7l-0.8,1.3L5.5,961C5.5,961,5.5,961,5.5,961z M10.9,963.6l-1-0.6l0.5-0.7l0.9,0.6
					L10.9,963.6z M10.4,962.9l0.4,0.2l0.1-0.2l-0.3-0.2L10.4,962.9z M1.7,958.9l-1.1-0.6l1.1-1.8l1.1,0.7L1.7,958.9z M1.1,958.2
					l0.5,0.3l0.7-1.2L1.8,957L1.1,958.2z"/>
			</g>
		</g>
		<g>
			<g>
				<path class="st0" d="M9.3,2c0.5-0.1,0.8-0.6,0.7-1.1C9.9,0.4,9.4,0.1,8.9,0.2C8.4,0.3,8.1,0.8,8.2,1.3C8.3,1.8,8.8,2.2,9.3,2z
					 M9,0.5C9.3,0.5,9.6,0.7,9.7,1c0.1,0.3-0.1,0.6-0.4,0.7C8.9,1.8,8.6,1.6,8.5,1.3C8.4,0.9,8.6,0.6,9,0.5z"/>
				<path class="st0" d="M9.1,2.2c-0.5,0-1-0.3-1.1-0.9C7.9,1.1,8,0.8,8.2,0.5C8.3,0.3,8.6,0.1,8.8,0C9.1,0,9.4,0,9.7,0.2
					c0.3,0.2,0.4,0.4,0.5,0.7c0.1,0.6-0.2,1.2-0.8,1.3l0,0C9.3,2.2,9.2,2.2,9.1,2.2z M9,0.7C8.8,0.8,8.6,1,8.7,1.2S9,1.6,9.2,1.5
					C9.4,1.5,9.6,1.2,9.5,1C9.5,0.8,9.2,0.7,9,0.7L9,0.7z"/>
			</g>
			<g>
				<path class="st0" d="M3.6,3.4c0.4-0.1,0.7-0.5,0.7-1l1.1-0.2c0.2,0.4,0.5,0.6,0.9,0.6l0.2,1.1C6.1,4,5.9,4.4,6,4.9
					c0.1,0.5,0.6,0.8,1.1,0.7c0.4-0.1,0.7-0.5,0.7-1l1.1-0.2c0.2,0.4,0.5,0.6,0.9,0.6L10.1,6C9.7,6.2,9.4,6.6,9.5,7.1
					c0.1,0.5,0.6,0.8,1.1,0.7s0.8-0.6,0.7-1.1c-0.1-0.4-0.5-0.7-1-0.7l-0.2-1.1c0.4-0.2,0.6-0.6,0.5-1.1c-0.1-0.5-0.6-0.8-1.1-0.7
					C9.1,3.2,8.8,3.6,8.8,4L7.8,4.3C7.6,3.9,7.3,3.7,6.9,3.7L6.6,2.7C7,2.5,7.3,2,7.2,1.6C7,1.1,6.5,0.8,6,0.9
					C5.6,1,5.3,1.4,5.3,1.8L4.3,2.1C4.1,1.7,3.6,1.4,3.2,1.5C2.7,1.7,2.3,2.2,2.5,2.7S3.1,3.5,3.6,3.4z M11,6.7
					c0.1,0.3-0.1,0.6-0.4,0.7C10.3,7.5,9.9,7.3,9.9,7C9.8,6.7,10,6.3,10.3,6.3C10.6,6.2,11,6.4,11,6.7z M9.6,3.4
					c0.3-0.1,0.6,0.1,0.7,0.4c0.1,0.3-0.1,0.6-0.4,0.7C9.6,4.6,9.3,4.4,9.2,4.1C9.1,3.8,9.3,3.5,9.6,3.4z M7.5,4.5
					c0.1,0.3-0.1,0.6-0.4,0.7C6.7,5.3,6.4,5.1,6.3,4.8C6.3,4.5,6.5,4.1,6.8,4.1S7.4,4.2,7.5,4.5z M6.1,1.2c0.3-0.1,0.6,0.1,0.7,0.4
					C6.9,2,6.7,2.3,6.4,2.4C6.1,2.4,5.7,2.2,5.7,1.9C5.6,1.6,5.8,1.3,6.1,1.2z M3.3,1.9C3.6,1.8,3.9,2,4,2.3C4,2.6,3.8,3,3.5,3
					C3.2,3.1,2.9,2.9,2.8,2.6C2.7,2.3,2.9,2,3.3,1.9z"/>
				<path class="st0" d="M10.4,8C10.2,8,10,7.9,9.9,7.8C9.6,7.6,9.4,7.4,9.4,7.1c-0.1-0.5,0.1-1,0.5-1.2L9.7,5.1
					C9.3,5.1,9,4.9,8.8,4.6L8,4.7c0,0.5-0.4,0.9-0.9,1c-0.3,0.1-0.6,0-0.8-0.1C6.1,5.4,5.9,5.2,5.8,4.9c-0.1-0.5,0.1-1,0.5-1.2
					L6.1,2.9c-0.4,0-0.7-0.2-0.9-0.5L4.5,2.6c0,0.5-0.4,0.9-0.9,1l0,0C3,3.7,2.4,3.3,2.3,2.7c-0.1-0.3,0-0.6,0.1-0.8
					c0.2-0.3,0.4-0.4,0.7-0.5c0.5-0.1,1,0.1,1.2,0.5l0.8-0.2c0-0.5,0.4-0.9,0.9-1c0.3-0.1,0.6,0,0.8,0.1C7.1,1,7.3,1.2,7.3,1.5
					c0.1,0.5-0.1,1-0.5,1.2L7,3.5c0.4,0,0.7,0.2,0.9,0.5l0.8-0.2c0-0.5,0.4-0.9,0.9-1c0.6-0.1,1.2,0.2,1.3,0.8
					c0.1,0.5-0.1,1-0.5,1.2l0.2,0.8c0.5,0,0.9,0.4,1,0.9c0.1,0.6-0.2,1.2-0.8,1.3C10.6,7.9,10.5,8,10.4,8z M10.4,6.4
					C10.4,6.4,10.4,6.4,10.4,6.4c-0.2,0-0.3,0.1-0.4,0.2S10,6.8,10,6.9c0,0.1,0.1,0.2,0.2,0.3c0.1,0.1,0.2,0.1,0.3,0.1
					c0.1,0,0.2-0.1,0.3-0.2c0.1-0.1,0.1-0.2,0.1-0.3v0c0-0.1-0.1-0.2-0.2-0.3C10.6,6.4,10.5,6.4,10.4,6.4z M10.3,6.1L10.3,6.1
					C10.2,6.1,10.2,6.1,10.3,6.1C10.3,6.1,10.3,6.1,10.3,6.1L10.3,6.1z M6.9,4.2C6.9,4.2,6.9,4.2,6.9,4.2C6.6,4.3,6.5,4.5,6.5,4.7
					C6.6,5,6.8,5.1,7,5.1C7.2,5,7.4,4.8,7.3,4.6C7.3,4.4,7.1,4.2,6.9,4.2z M10,4.7C10,4.7,10,4.7,10,4.7c-0.1,0-0.1,0-0.2,0L10,4.7
					L10,4.7z M7.6,4.4C7.7,4.4,7.7,4.4,7.6,4.4L7.6,4.4c0,0.1,0,0.2,0,0.2L7.6,4.4L7.6,4.4z M9.8,3.6C9.7,3.6,9.7,3.6,9.8,3.6
					c-0.2,0-0.3,0.1-0.4,0.2C9.4,3.9,9.3,4,9.4,4.1c0,0.1,0.1,0.2,0.2,0.3s0.2,0.1,0.3,0.1c0.2-0.1,0.4-0.3,0.3-0.5
					c0-0.1-0.1-0.2-0.2-0.3C9.9,3.6,9.9,3.6,9.8,3.6z M9,4.2L9,4.2C9,4.2,9,4.2,9,4.2C9,4.1,9,4.1,9,4.2L9,4.2z M6.7,3.9L6.7,3.9
					C6.7,3.9,6.7,3.9,6.7,3.9C6.8,3.9,6.8,3.9,6.7,3.9L6.7,3.9z M3.4,2C3.4,2,3.3,2,3.4,2L3.4,2C3.2,2.1,3.1,2.1,3,2.2
					C3,2.3,3,2.5,3,2.6c0,0.1,0.1,0.2,0.2,0.3c0.1,0.1,0.2,0.1,0.3,0.1c0.2-0.1,0.4-0.3,0.3-0.5C3.8,2.2,3.6,2,3.4,2z M6.5,2.5
					C6.5,2.5,6.5,2.5,6.5,2.5c-0.1,0-0.1,0-0.2,0L6.5,2.5L6.5,2.5z M4.1,2.2C4.1,2.2,4.1,2.3,4.1,2.2c0,0.1,0,0.1,0,0.2L4.1,2.2
					L4.1,2.2z M6.1,1.4C5.9,1.4,5.8,1.7,5.8,1.9C5.9,2,5.9,2.1,6,2.2s0.2,0.1,0.3,0.1c0.1,0,0.2-0.1,0.3-0.2
					c0.1-0.1,0.1-0.2,0.1-0.3C6.6,1.5,6.4,1.3,6.1,1.4L6.1,1.4z M5.5,2L5.5,2C5.5,2,5.5,2,5.5,2C5.5,1.9,5.5,1.9,5.5,2L5.5,2z"/>
			</g>
			<g>
				<circle class="st0" cx="10.4" cy="6.8" r="0.7"/>
				<path class="st0" d="M10.4,7.7c-0.2,0-0.3,0-0.5-0.1C9.8,7.5,9.6,7.3,9.6,7c-0.1-0.2,0-0.5,0.1-0.7C9.8,6.2,10,6,10.2,6
					c0.5-0.1,1,0.2,1.1,0.7c0.1,0.5-0.2,1-0.7,1.1C10.6,7.7,10.5,7.7,10.4,7.7z M10.4,6.3c0,0-0.1,0-0.1,0c-0.1,0-0.3,0.1-0.3,0.2
					C9.9,6.7,9.9,6.8,9.9,7l0,0c0,0.1,0.1,0.3,0.2,0.3c0.1,0.1,0.3,0.1,0.4,0.1C10.9,7.3,11.1,7,11,6.7C10.9,6.5,10.7,6.3,10.4,6.3z
					"/>
			</g>
			<g>
				<circle class="st0" cx="3.4" cy="2.5" r="0.7"/>
				<path class="st0" d="M3.4,3.4C3,3.4,2.6,3.1,2.5,2.7l0,0c-0.1-0.5,0.2-1,0.7-1.1c0.5-0.1,1,0.2,1.1,0.7s-0.2,1-0.7,1.1
					C3.5,3.4,3.5,3.4,3.4,3.4z M2.9,2.6C2.9,2.9,3.2,3.1,3.5,3C3.8,2.9,4,2.6,3.9,2.3c0-0.1-0.1-0.3-0.2-0.3
					C3.6,1.9,3.4,1.9,3.3,1.9C3,2,2.8,2.3,2.9,2.6L2.9,2.6z"/>
			</g>
		</g>
		<g>
			<path class="st0" d="M11.4,10.5c0,0-0.4,0.9-0.4,0.9L10.3,11L10,10.6l0.5-0.7l0.6,0.2L11.4,10.5z"/>
			<path class="st0" d="M11.1,11.6l-1-0.4l-0.4-0.6l0.6-1l0.8,0.3l0.4,0.4v0.1c0,0,0,0.1-0.4,1L11.1,11.6z M10.4,10.9l0.6,0.2
				c0.1-0.3,0.2-0.5,0.3-0.6l-0.2-0.3l-0.4-0.1l-0.3,0.5L10.4,10.9z"/>
		</g>
		<g>
			<path class="st0" d="M1.7,4.2l1.1,0.4c0,0-0.3,0.9-0.3,0.9c0,0-0.5,0.8-0.5,0.8L1.2,6.4c0,0-0.6-0.2-0.6-0.3
				c0-0.1,0.1-0.7,0.1-0.7l0.4-0.7L1.7,4.2z"/>
			<path class="st0" d="M1.2,6.6L1.2,6.6C0.5,6.3,0.5,6.2,0.5,6.2c0,0,0-0.1,0.1-0.7l0,0L1,4.6L1.7,4L3,4.4L3,4.6
				C2.8,5,2.7,5.4,2.6,5.5c0,0.1-0.1,0.2-0.5,0.9l0,0.1L1.2,6.6z M0.8,6c0.1,0.1,0.3,0.1,0.4,0.2l0.6-0.2c0.2-0.3,0.4-0.6,0.4-0.7
				c0-0.1,0.1-0.3,0.3-0.7L1.8,4.4L1.2,4.8L0.9,5.5C0.9,5.7,0.8,5.9,0.8,6z M0.8,6L0.8,6z"/>
		</g>
	</g>
</g>
</svg>
