<svg version="1.1" id="Layer_1" xmlns="http://www.w3.org/2000/svg" xmlns:xlink="http://www.w3.org/1999/xlink" x="0px" y="0px"
	 viewBox="0 0 95.4 29.9" >
<g>
	<path fill="#ffffff" d="M38,21c1.9,0,3.3-0.6,3.3-2.3c0-1.8-2.2-2.1-4.3-2.6c-3-0.8-6.5-2-6.5-6.6c0-4.1,3-6.4,7.2-6.4
		c2.6,0,4.9,0.4,7.2,1.7l-1.4,3.7c-1.7-0.9-3.5-1.2-5.2-1.2c-1.8,0-3.3,0.6-3.3,2.2c0,2,2.3,2.1,3.7,2.6c3,0.8,7.2,1.9,7.2,6.5
		c0,4-2.6,6.7-7.8,6.7c-3,0-5.8-0.6-8.1-2l1.5-3.6C33.6,20.5,35.9,21,38,21z"/>
	<path fill="#ffffff" d="M48.6,4.5c0-1.6,1-2.3,2.6-2.3c1.6,0,2.6,0.7,2.6,2.3c0,1.6-1,2.3-2.6,2.3C49.6,6.8,48.6,6.1,48.6,4.5z
		 M49.7,24.7c-0.6-1.5-0.7-3.4-0.7-5.5v-10l4.4-0.5v10.9c0,1.6,0,3.8,0.4,5.2H49.7z"/>
	<path fill="#ffffff" d="M57.2,3.4l4.4-0.5v7.6c0.8-1.6,2.2-2.2,4.4-2.2c3.5,0,5.7,2.2,5.7,8.4c0,6.3-2.8,8.4-7.4,8.4
		c-2.5,0-4.8-0.3-7.1-1V3.4z M64,21.5c2.3,0,3.3-1.2,3.3-4.9c0-3-0.4-4.8-2.7-4.8c-1.4,0-2.2,0.7-2.9,1.9v7.4
		C62.5,21.4,63.3,21.5,64,21.5z"/>
	<path fill="#ffffff" d="M74.5,27c1.6-0.6,2.8-1.4,3.4-2.7L72.7,9l4.8-0.7L80.7,21l3.2-12.6l4.4,0.4l-4.5,13.6
		c-1.1,3.3-3.2,6.2-7.4,7.5L74.5,27z"/>
	<path fill="#ffffff" d="M91.3,24.7c-0.6-1.5-0.7-3.4-0.7-5.5V3.3L95,2.8v16.7c0,1.6,0,3.8,0.4,5.2H91.3z"/>
</g>
<g>
	<g>
		<g transform="translate(0,-952.36218)">
			<g>
				<path fill="#ffffff" d="M3.1,959.9c-0.2,0-0.3,0.1-0.4,0.3l-2.4,4c-0.2,0.3-0.1,0.6,0.2,0.7c0,0,0,0,0,0l7,3.8
					c0.2,0.2,0.6,0.1,0.7-0.1c0.2-0.2,0.1-0.6-0.1-0.7c0,0-0.1,0-0.1-0.1l-4-2.2l1.8-2.9l14.8,9.1l-1.3,2.1l-8-4.4
					c-0.3-0.1-0.6,0-0.7,0.2c0,0,0,0,0,0L5.4,980c-0.2,0.3-0.1,0.6,0.2,0.7c0.3,0.2,0.6,0.1,0.7-0.2c0,0,0-0.1,0-0.1l4.9-9.7
					l2.2,1.2l4.3,8.6c0.1,0.3,0.4,0.4,0.7,0.3c0.3-0.1,0.4-0.4,0.3-0.7c0,0,0-0.1,0-0.1l-3.6-7.2l4.2,2.3c0.2,0.1,0.6,0.1,0.7-0.2
					l0.1-0.2l1.8,1.1c0.2,0.2,0.6,0.1,0.7-0.2c0,0,0,0,0,0l1.1-1.9c0.1-0.3,0.1-0.6-0.2-0.7l-1.7-1.1l0-0.1c0.2-0.2,0.1-0.6-0.2-0.7
					c0,0,0,0,0,0L3.5,960C3.4,959.9,3.2,959.9,3.1,959.9z M3.4,961.2l1.5,1l-1.8,3l-1.6-0.9L3.4,961.2z M21.2,972.9l1.3,0.8
					l-0.5,0.9l-1.3-0.8L21.2,972.9z"/>
				<path fill="#ffffff" d="M5.8,981.1c-0.1,0-0.3,0-0.4-0.1c-0.2-0.1-0.3-0.3-0.3-0.5s0-0.4,0.1-0.6l5.1-10.2c0.2-0.4,0.7-0.5,1.1-0.3
					l7.8,4.2l1.1-1.6L5.9,963l-1.5,2.5l3.8,2c0,0,0.1,0,0.1,0.1c0.4,0.3,0.4,0.7,0.2,1.1c-0.3,0.4-0.7,0.4-1.1,0.2l-7-3.8
					c-0.4-0.2-0.5-0.7-0.3-1.1l2.4-4c0.1-0.2,0.3-0.3,0.6-0.4l0,0c0.2,0,0.4,0,0.5,0.1L21.8,971c0.2,0.1,0.3,0.3,0.4,0.5
					c0,0.1,0,0.3,0,0.4l1.5,1c0.4,0.2,0.5,0.7,0.3,1.1l-1.1,1.9c-0.3,0.4-0.7,0.5-1.1,0.3l-1.6-1c-0.2,0.3-0.7,0.4-1,0.2l-3.5-1.9
					l3.2,6.5c0,0,0,0.1,0.1,0.1c0.2,0.4,0,0.9-0.4,1c-0.4,0.2-0.9,0-1-0.4l-4.2-8.5l-1.9-1l-4.8,9.5c0,0,0,0.1-0.1,0.1
					C6.4,980.9,6.2,981,6,981C6,981.1,5.9,981.1,5.8,981.1z M11,969.7C11,969.7,11,969.7,11,969.7c-0.2,0-0.2,0.1-0.2,0.1l-5.2,10.2
					c-0.1,0.1-0.1,0.2,0,0.2c0,0.1,0.1,0.1,0.1,0.2c0.1,0,0.1,0.1,0.2,0c0.1,0,0.1-0.1,0.2-0.1l0-0.1l5-10l2.5,1.3l4.3,8.6
					c0.1,0.2,0.2,0.2,0.4,0.2c0.1-0.1,0.2-0.2,0.2-0.4l0-0.1l-4-7.9l4.9,2.7c0.1,0.1,0.3,0,0.4-0.1l0.2-0.4l2,1.3
					c0.1,0.1,0.3,0,0.4-0.1l1.1-1.9c0.1-0.1,0-0.3-0.1-0.4l-2-1.2l0.1-0.2c0.1-0.1,0.1-0.2,0.1-0.3s-0.1-0.1-0.1-0.2L3.3,960.2
					c-0.1,0-0.1,0-0.2,0l0,0c-0.1,0-0.2,0.1-0.2,0.1l-2.4,4c-0.1,0.1,0,0.3,0.1,0.4l7,3.8c0.2,0.1,0.3,0.1,0.4-0.1
					c0.1-0.1,0.1-0.3-0.1-0.4c0,0,0,0-0.1,0l-4.2-2.3l2-3.4l15.2,9.4l-1.6,2.5l-8.2-4.5C11.1,969.7,11.1,969.7,11,969.7z M22.1,975
					l-1.8-1.1l0.9-1.3l1.7,1.1L22.1,975z M21,973.7l0.9,0.6l0.3-0.5l-0.9-0.6L21,973.7z M3.2,965.4l-2-1.1l2.1-3.5l2,1.2L3.2,965.4z
					 M1.9,964.1l1.2,0.6l1.5-2.6l-1.1-0.7L1.9,964.1z"/>
			</g>
		</g>
		<g>
			<g>
				<path fill="#ffffff" d="M18.9,4.1c1-0.2,1.7-1.3,1.4-2.3c-0.2-1-1.3-1.7-2.3-1.4c-1,0.2-1.7,1.3-1.4,2.3S17.9,4.3,18.9,4.1z
					 M18.2,1c0.7-0.2,1.3,0.3,1.5,0.9c0.2,0.7-0.3,1.3-0.9,1.5c-0.7,0.2-1.3-0.3-1.5-0.9C17.1,1.8,17.5,1.1,18.2,1z"/>
				<path fill="#ffffff" d="M18.4,4.4c-0.4,0-0.8-0.1-1.1-0.3c-0.5-0.3-0.8-0.8-1-1.4c-0.1-0.6,0-1.1,0.3-1.6s0.8-0.8,1.4-1
					c0.6-0.1,1.1,0,1.6,0.3c0.5,0.3,0.8,0.8,1,1.4c0.1,0.6,0,1.1-0.3,1.6s-0.8,0.8-1.4,1C18.8,4.3,18.6,4.4,18.4,4.4z M18.4,0.5
					c-0.1,0-0.3,0-0.4,0c-0.4,0.1-0.8,0.4-1,0.7s-0.3,0.8-0.2,1.3c0.1,0.4,0.4,0.8,0.8,1c0.4,0.2,0.8,0.3,1.3,0.2l0,0
					c0.4-0.1,0.8-0.4,1-0.7c0.2-0.4,0.3-0.8,0.2-1.3C19.9,1,19.2,0.5,18.4,0.5z M18.4,3.6c-0.7,0-1.3-0.5-1.4-1.1
					c-0.1-0.4,0-0.8,0.2-1.1s0.5-0.6,0.9-0.7c0.4-0.1,0.8,0,1.1,0.2c0.3,0.2,0.6,0.5,0.7,0.9c0.2,0.8-0.3,1.6-1.1,1.8
					C18.7,3.6,18.6,3.6,18.4,3.6z M18.4,1.2c-0.1,0-0.1,0-0.2,0c-0.5,0.1-0.8,0.6-0.7,1.2c0.1,0.5,0.6,0.8,1.2,0.7
					C19.2,3,19.5,2.5,19.4,2c-0.1-0.3-0.2-0.5-0.4-0.6C18.8,1.3,18.6,1.2,18.4,1.2z"/>
			</g>
			<g>
				<path fill="#ffffff" d="M7.2,6.8c0.9-0.2,1.5-1.1,1.5-2l2.1-0.5c0.3,0.7,1.1,1.2,1.8,1.1l0.5,2.1c-0.8,0.4-1.3,1.3-1.1,2.2
					c0.2,1,1.3,1.7,2.3,1.4c0.9-0.2,1.5-1.1,1.5-2l2.1-0.5c0.3,0.7,1.1,1.2,1.8,1.1l0.5,2.1c-0.8,0.4-1.3,1.3-1.1,2.2
					c0.2,1,1.3,1.7,2.3,1.4c1-0.2,1.7-1.3,1.4-2.3c-0.2-0.9-1.1-1.5-2-1.5l-0.5-2.1c0.8-0.4,1.3-1.3,1.1-2.2c-0.2-1-1.3-1.7-2.3-1.4
					c-0.9,0.2-1.5,1.1-1.5,2l-2.1,0.5c-0.3-0.7-1.1-1.2-1.8-1.1l-0.5-2.1c0.8-0.4,1.3-1.3,1.1-2.2c-0.2-1-1.3-1.7-2.3-1.4
					c-0.9,0.2-1.5,1.1-1.5,2L8.6,4.1C8.2,3.3,7.3,2.8,6.4,3c-1,0.2-1.7,1.3-1.4,2.3S6.2,7,7.2,6.8z M22.4,13.5
					c0.2,0.7-0.3,1.3-0.9,1.5c-0.7,0.2-1.3-0.3-1.5-0.9c-0.2-0.7,0.3-1.3,0.9-1.5C21.6,12.5,22.2,12.9,22.4,13.5z M19.5,6.8
					c0.7-0.2,1.3,0.3,1.5,0.9S20.7,9,20.1,9.2c-0.7,0.2-1.3-0.3-1.5-0.9C18.5,7.6,18.9,7,19.5,6.8z M15.2,9.1
					c0.2,0.7-0.3,1.3-0.9,1.5c-0.7,0.2-1.3-0.3-1.5-0.9c-0.2-0.7,0.3-1.3,0.9-1.5C14.4,8,15,8.4,15.2,9.1z M12.3,2.4
					c0.7-0.2,1.3,0.3,1.5,0.9c0.2,0.7-0.3,1.3-0.9,1.5c-0.7,0.2-1.3-0.3-1.5-0.9C11.3,3.2,11.7,2.5,12.3,2.4z M6.5,3.7
					C7.2,3.6,7.8,4,8,4.6c0.2,0.7-0.3,1.3-0.9,1.5S5.8,5.8,5.6,5.2C5.5,4.5,5.9,3.9,6.5,3.7z"/>
				<path fill="#ffffff" d="M21.2,16c-0.4,0-0.8-0.1-1.1-0.3c-0.5-0.3-0.8-0.8-1-1.4c-0.2-0.9,0.2-1.9,1-2.4l-0.4-1.8
					c-0.7,0-1.4-0.5-1.8-1.1l-1.8,0.4c0,1-0.7,1.8-1.7,2c-0.6,0.1-1.1,0-1.6-0.3c-0.5-0.3-0.8-0.8-1-1.4c-0.2-0.9,0.2-1.9,1-2.4
					l-0.4-1.8c-0.7,0-1.4-0.5-1.8-1.1L9,5c0,1-0.7,1.8-1.7,2c-0.6,0.1-1.1,0-1.6-0.3C5.2,6.5,4.8,6,4.7,5.4c-0.1-0.6,0-1.1,0.3-1.6
					s0.8-0.8,1.4-1c0.9-0.2,1.9,0.2,2.4,1l1.8-0.4c0-1,0.7-1.8,1.7-2c0.6-0.1,1.1,0,1.6,0.3c0.5,0.3,0.8,0.8,1,1.4
					C15,4,14.5,5,13.7,5.4l0.4,1.8c0.7,0,1.4,0.5,1.8,1.1l1.8-0.4c0-1,0.7-1.8,1.7-2c0.6-0.1,1.1,0,1.6,0.3c0.5,0.3,0.8,0.8,1,1.4
					c0.2,0.9-0.2,1.9-1,2.4l0.4,1.8c1,0,1.8,0.7,2,1.7c0.3,1.2-0.5,2.3-1.6,2.6C21.5,16,21.3,16,21.2,16z M20.1,9.7l0.6,2.5
					l-0.2,0.1c-0.7,0.3-1.1,1.1-1,1.9c0.2,0.9,1.1,1.5,2,1.2c0.9-0.2,1.5-1.1,1.2-2c-0.2-0.8-0.9-1.3-1.7-1.3l-0.2,0l-0.6-2.5
					l0.2-0.1c0.7-0.3,1.1-1.1,1-1.9c-0.2-0.9-1.1-1.5-2-1.2c-0.8,0.2-1.3,0.9-1.3,1.7l0,0.2l-2.5,0.6l-0.1-0.2c-0.3-0.6-0.9-1-1.6-1
					l-0.2,0l-0.6-2.5l0.2-0.1c0.7-0.3,1.1-1.1,1-1.9c-0.1-0.4-0.4-0.8-0.7-1s-0.8-0.3-1.3-0.2c-0.8,0.2-1.3,0.9-1.3,1.7l0,0.2
					L8.4,4.4L8.3,4.2C8,3.5,7.2,3.1,6.4,3.3C5.5,3.5,5,4.4,5.2,5.3c0.1,0.4,0.4,0.8,0.8,1c0.4,0.2,0.8,0.3,1.3,0.2l0,0
					C8,6.4,8.5,5.6,8.5,4.8l0-0.2L11,4l0.1,0.2c0.3,0.6,0.9,1,1.6,1l0.2,0l0.6,2.5l-0.2,0.1c-0.7,0.3-1.1,1.1-1,1.9
					c0.1,0.4,0.4,0.8,0.7,1c0.4,0.2,0.8,0.3,1.3,0.2c0.8-0.2,1.3-0.9,1.3-1.7l0-0.2l2.5-0.6l0.1,0.2c0.3,0.6,0.9,1,1.6,1L20.1,9.7z
					 M21.2,15.3c-0.7,0-1.3-0.5-1.4-1.1c-0.2-0.8,0.3-1.6,1.1-1.8c0.8-0.2,1.6,0.3,1.8,1.1v0c0.2,0.8-0.3,1.6-1.1,1.8
					C21.4,15.3,21.3,15.3,21.2,15.3z M21.2,12.9c-0.1,0-0.1,0-0.2,0c-0.5,0.1-0.8,0.6-0.7,1.2c0.1,0.5,0.6,0.8,1.2,0.7
					c0.5-0.1,0.8-0.6,0.7-1.2C22,13.2,21.6,12.9,21.2,12.9z M14,10.8c-0.3,0-0.5-0.1-0.8-0.2c-0.3-0.2-0.6-0.5-0.7-0.9
					c-0.1-0.4,0-0.8,0.2-1.1C13,8.3,13.3,8,13.7,7.9c0.4-0.1,0.8,0,1.1,0.2c0.3,0.2,0.6,0.5,0.7,0.9c0.1,0.4,0,0.8-0.2,1.1
					s-0.5,0.6-0.9,0.7C14.2,10.8,14.1,10.8,14,10.8z M14,8.4c-0.1,0-0.1,0-0.2,0c-0.5,0.1-0.8,0.6-0.7,1.2c0.1,0.5,0.6,0.8,1.2,0.7
					c0.5-0.1,0.8-0.6,0.7-1.2l0,0c-0.1-0.3-0.2-0.5-0.4-0.6C14.3,8.5,14.2,8.4,14,8.4z M19.8,9.5c-0.7,0-1.3-0.5-1.4-1.1
					c-0.2-0.8,0.3-1.6,1.1-1.8c0.4-0.1,0.8,0,1.1,0.2c0.3,0.2,0.6,0.5,0.7,0.9c0.1,0.4,0,0.8-0.2,1.1s-0.5,0.6-0.9,0.7
					C20,9.5,19.9,9.5,19.8,9.5z M19.8,7c-0.1,0-0.1,0-0.2,0c-0.5,0.1-0.8,0.6-0.7,1.2C19,8.7,19.5,9.1,20,8.9
					c0.3-0.1,0.5-0.2,0.6-0.4s0.2-0.5,0.1-0.7c-0.1-0.2-0.2-0.5-0.4-0.6C20.2,7.1,20,7,19.8,7z M6.8,6.4c-0.7,0-1.3-0.5-1.4-1.1
					C5.2,4.5,5.7,3.7,6.5,3.5h0C7.2,3.3,8,3.8,8.2,4.6c0.2,0.8-0.3,1.6-1.1,1.8C7,6.4,6.9,6.4,6.8,6.4z M6.6,4
					C6.1,4.1,5.7,4.6,5.9,5.1c0.1,0.3,0.2,0.5,0.4,0.6C6.5,5.9,6.8,5.9,7,5.9c0.2-0.1,0.5-0.2,0.6-0.4c0.1-0.2,0.2-0.5,0.1-0.7
					C7.7,4.4,7.5,4.2,7.3,4.1C7.1,4,6.8,3.9,6.6,4L6.6,4z M12.6,5c-0.3,0-0.5-0.1-0.8-0.2c-0.3-0.2-0.6-0.5-0.7-0.9
					c-0.1-0.4,0-0.8,0.2-1.1s0.5-0.6,0.9-0.7s0.8,0,1.1,0.2S14,2.8,14,3.2C14.2,4,13.7,4.8,13,5C12.8,5,12.7,5,12.6,5z M12.6,2.6
					c-0.1,0-0.1,0-0.2,0c-0.2,0.1-0.5,0.2-0.6,0.4s-0.2,0.5-0.1,0.7c0.1,0.2,0.2,0.5,0.4,0.6c0.2,0.1,0.5,0.2,0.7,0.1
					c0.5-0.1,0.8-0.6,0.7-1.2c-0.1-0.2-0.2-0.5-0.4-0.6C13,2.6,12.8,2.6,12.6,2.6z"/>
			</g>
			<g>
				<circle fill="#ffffff" cx="21.2" cy="13.8" r="1.5"/>
				<path fill="#ffffff" d="M21.2,15.5c-0.3,0-0.6-0.1-0.9-0.3c-0.4-0.2-0.7-0.6-0.8-1.1c-0.2-0.9,0.4-1.9,1.3-2.1
					c0.9-0.2,1.9,0.4,2.1,1.3c0.2,0.9-0.4,1.9-1.3,2.1C21.4,15.5,21.3,15.5,21.2,15.5z M21.2,12.6c-0.1,0-0.2,0-0.3,0
					c-0.7,0.2-1.1,0.8-0.9,1.5c0.1,0.3,0.3,0.6,0.5,0.8c0.3,0.2,0.6,0.2,0.9,0.2c0.7-0.2,1.1-0.8,0.9-1.5
					C22.2,13,21.7,12.6,21.2,12.6z"/>
			</g>
			<g>
				<circle fill="#ffffff" cx="6.8" cy="4.9" r="1.5"/>
				<path fill="#ffffff" d="M6.8,6.6c-0.3,0-0.6-0.1-0.9-0.3C5.5,6.1,5.2,5.8,5.1,5.3l0,0C5,4.9,5.1,4.4,5.3,4C5.6,3.6,6,3.3,6.4,3.2
					C7.3,3,8.3,3.6,8.5,4.5c0.2,0.9-0.4,1.9-1.3,2.1C7.1,6.6,6.9,6.6,6.8,6.6z M6.8,3.7c-0.1,0-0.2,0-0.3,0C6.2,3.8,5.9,4,5.8,4.3
					S5.5,4.9,5.6,5.2v0C5.7,5.5,5.9,5.8,6.2,6c0.3,0.2,0.6,0.2,0.9,0.2C7.7,6,8.1,5.3,8,4.6C7.9,4.1,7.3,3.7,6.8,3.7z"/>
			</g>
		</g>
		<g>
			<path fill="#ffffff" d="M23.1,21.2c0,0.1-0.7,1.8-0.7,1.8l-1.6-0.6l-0.6-0.8l1-1.5l1.2,0.4L23.1,21.2z"/>
			<path fill="#ffffff" d="M22.5,23.4l-1.8-0.7l-0.8-1l1.2-1.8l1.5,0.5l0.8,0.8v0.1c0,0.1,0,0.1-0.8,1.9L22.5,23.4z M21,22.2l1.3,0.5
				c0.2-0.6,0.5-1.2,0.6-1.4l-0.6-0.6l-1-0.3l-0.8,1.2L21,22.2z"/>
		</g>
		<g>
			<path fill="#ffffff" d="M3.4,8.4l2.2,0.7c0,0-0.7,1.8-0.7,1.9S4,12.6,4,12.6L2.4,13c0,0-1.2-0.5-1.2-0.7c0-0.2,0.2-1.3,0.2-1.3
				l0.8-1.5L3.4,8.4z"/>
			<path fill="#ffffff" d="M2.4,13.3L2.4,13.3C1,12.7,1,12.5,1,12.4c0-0.2,0.1-0.9,0.2-1.4l0-0.1L2,9.3l1.4-1.2L5.9,9L5.8,9.2
				C5.6,9.9,5.2,10.9,5.2,11c0,0,0,0.1-1,1.7l-0.1,0.1L2.4,13.3z M1.4,12.3c0.1,0.1,0.6,0.3,1,0.5l1.4-0.4c0.3-0.6,0.8-1.4,0.9-1.5
				c0-0.1,0.2-0.5,0.6-1.6L3.5,8.7l-1.2,1l-0.7,1.4C1.5,11.6,1.5,12.1,1.4,12.3z M1.4,12.2L1.4,12.2z"/>
		</g>
	</g>
</g>
</svg>
